<svg width="99" height="73" viewBox="0 0 99 73" fill="none" xmlns="http://www.w3.org/2000/svg">
<path d="M2.571 40.24C2.351 40.24 2.098 40.163 1.812 40.009C1.526 39.877 1.284 39.602 1.086 39.184C0.866 38.766 0.756 38.15 0.756 37.336C0.756 36.368 0.921 35.103 1.251 33.541C1.581 32.001 2.032 30.296 2.604 28.426C3.176 26.556 3.836 24.642 4.584 22.684C5.332 20.704 6.135 18.801 6.993 16.975C7.873 15.127 8.764 13.477 9.666 12.025C10.59 10.551 11.492 9.385 12.372 8.527C13.252 7.669 14.088 7.24 14.88 7.24C15.342 7.24 15.639 7.383 15.771 7.669C15.925 7.955 16.002 8.296 16.002 8.692C16.002 9.638 15.738 10.672 15.21 11.794C14.704 12.916 14.022 14.049 13.164 15.193C12.306 16.315 11.36 17.393 10.326 18.427C9.292 19.439 8.247 20.308 7.191 21.034C7.081 21.298 6.971 21.573 6.861 21.859C6.773 22.123 6.674 22.398 6.564 22.684C6.806 22.728 6.993 22.86 7.125 23.08C7.279 23.278 7.367 23.498 7.389 23.74C7.543 24.73 7.708 25.621 7.884 26.413C8.06 27.183 8.324 27.788 8.676 28.228C9.05 28.668 9.578 28.888 10.26 28.888C11.03 28.888 11.679 28.613 12.207 28.063C12.735 27.491 13.307 26.688 13.923 25.654L14.418 25.984C13.868 27.304 13.164 28.261 12.306 28.855C11.47 29.449 10.733 29.746 10.095 29.746C9.699 29.746 9.281 29.647 8.841 29.449C8.423 29.251 8.027 28.987 7.653 28.657C7.653 30.043 7.499 31.418 7.191 32.782C6.905 34.146 6.52 35.389 6.036 36.511C5.552 37.633 5.013 38.535 4.419 39.217C3.825 39.899 3.209 40.24 2.571 40.24ZM3.429 38.656C3.671 38.656 3.946 38.436 4.254 37.996C4.562 37.556 4.859 36.973 5.145 36.247C5.453 35.543 5.728 34.762 5.97 33.904C6.212 33.046 6.41 32.188 6.564 31.33C6.718 30.472 6.795 29.702 6.795 29.02C6.795 28.338 6.707 27.722 6.531 27.172C6.355 26.6 6.069 25.929 5.673 25.159C5.123 26.809 4.628 28.404 4.188 29.944C3.748 31.484 3.407 32.87 3.165 34.102C2.923 35.334 2.802 36.324 2.802 37.072C2.802 38.128 3.011 38.656 3.429 38.656ZM7.719 19.681C9.149 18.361 10.381 17.041 11.415 15.721C12.471 14.379 13.285 13.191 13.857 12.157C14.429 11.101 14.715 10.353 14.715 9.913C14.715 9.605 14.561 9.451 14.253 9.451C13.681 9.451 13.032 9.924 12.306 10.87C11.58 11.794 10.821 13.026 10.029 14.566C9.237 16.106 8.467 17.811 7.719 19.681ZM14.8643 32.551C14.1823 32.551 13.6103 32.32 13.1483 31.858C12.6643 31.418 12.4223 30.736 12.4223 29.812C12.4223 29.02 12.5983 28.173 12.9503 27.271C13.3023 26.347 13.7863 25.445 14.4023 24.565C15.0183 23.663 15.7113 22.849 16.4813 22.123C17.2733 21.375 18.0983 20.781 18.9563 20.341C19.8363 19.901 20.7053 19.681 21.5633 19.681C22.4213 19.681 23.1363 19.912 23.7083 20.374C24.2803 20.814 24.5663 21.408 24.5663 22.156C24.5663 22.706 24.4123 23.08 24.1043 23.278C23.8183 23.476 23.4333 23.575 22.9493 23.575C22.9933 23.399 23.0263 23.212 23.0483 23.014C23.0923 22.794 23.1143 22.596 23.1143 22.42C23.1143 21.914 22.9933 21.485 22.7513 21.133C22.5093 20.759 22.0913 20.572 21.4973 20.572C20.8813 20.572 20.2543 20.792 19.6163 21.232C18.9783 21.65 18.3623 22.222 17.7683 22.948C17.1743 23.652 16.6463 24.422 16.1843 25.258C15.7223 26.094 15.3593 26.919 15.0953 27.733C14.8313 28.547 14.6993 29.273 14.6993 29.911C14.6993 30.769 14.9963 31.198 15.5903 31.198C16.0963 31.198 16.6463 30.967 17.2403 30.505C17.8343 30.021 18.4393 29.416 19.0553 28.69C19.6933 27.942 20.2983 27.172 20.8703 26.38C21.4423 25.588 21.9483 24.862 22.3883 24.202C22.4763 24.07 22.5313 24.004 22.5533 24.004C22.6853 24.026 22.8503 24.07 23.0483 24.136C23.2683 24.202 23.4553 24.29 23.6093 24.4C23.7633 24.51 23.8403 24.653 23.8403 24.829C23.8403 25.027 23.7413 25.302 23.5433 25.654C23.3453 25.984 23.1253 26.369 22.8833 26.809C22.6413 27.249 22.4213 27.7 22.2233 28.162C22.0253 28.602 21.9263 29.02 21.9263 29.416C21.9263 29.746 22.0143 30.076 22.1903 30.406C22.3663 30.714 22.6523 30.868 23.0483 30.868C23.6423 30.868 24.4233 30.439 25.3913 29.581C26.3593 28.701 27.3383 27.392 28.3283 25.654L28.6583 25.984C28.1963 27.172 27.6023 28.217 26.8763 29.119C26.1503 30.021 25.3693 30.725 24.5333 31.231C23.7193 31.737 22.9163 31.99 22.1243 31.99C21.3103 31.99 20.7053 31.748 20.3093 31.264C19.9353 30.78 19.7483 30.252 19.7483 29.68C19.7483 29.548 19.7593 29.405 19.7813 29.251C19.8033 29.075 19.8253 28.899 19.8473 28.723C18.9013 29.999 18.0323 30.956 17.2403 31.594C16.4703 32.232 15.6783 32.551 14.8643 32.551ZM31.1183 32.683C30.0843 32.683 29.2593 32.452 28.6433 31.99C28.0493 31.55 27.6313 31 27.3893 30.34C27.1253 29.68 26.9933 29.02 26.9933 28.36C26.9933 27.7 27.0813 27.194 27.2573 26.842C27.4333 26.49 27.6423 26.226 27.8843 26.05C28.1483 25.874 28.3903 25.742 28.6103 25.654C28.8523 25.566 29.0173 25.478 29.1053 25.39C29.7653 24.664 30.3703 23.905 30.9203 23.113C31.4703 22.321 31.9543 21.485 32.3723 20.605V20.209C32.3723 19.395 32.5043 18.823 32.7683 18.493C33.0543 18.141 33.3513 17.965 33.6593 17.965C33.8353 17.965 33.9673 18.009 34.0553 18.097C34.1433 18.185 34.1873 18.284 34.1873 18.394C34.1873 18.504 34.1543 18.68 34.0883 18.922C34.0223 19.164 33.9893 19.472 33.9893 19.846C33.9893 20.572 34.1323 21.364 34.4183 22.222C34.7043 23.058 34.9903 23.949 35.2763 24.895C35.5623 25.819 35.7053 26.787 35.7053 27.799C35.7053 28.085 35.6833 28.371 35.6393 28.657C35.6173 28.921 35.5733 29.174 35.5073 29.416C36.2773 29.284 37.0033 28.943 37.6853 28.393C38.3673 27.821 39.0273 26.919 39.6653 25.687L39.9623 26.017C39.5443 27.227 38.9173 28.151 38.0813 28.789C37.2453 29.405 36.3323 29.79 35.3423 29.944C34.9903 30.89 34.4293 31.583 33.6593 32.023C32.9113 32.463 32.0643 32.683 31.1183 32.683ZM31.1843 31.528C31.4483 31.528 31.8003 31.44 32.2403 31.264C32.6803 31.088 33.0213 30.637 33.2633 29.911C32.3393 29.735 31.5143 29.372 30.7883 28.822C30.0843 28.272 29.5563 27.722 29.2043 27.172C28.7203 27.194 28.4783 27.579 28.4783 28.327C28.4783 29.119 28.7093 29.856 29.1713 30.538C29.6553 31.198 30.3263 31.528 31.1843 31.528ZM33.4283 29.383C33.4723 29.163 33.5053 28.932 33.5273 28.69C33.5493 28.448 33.5603 28.162 33.5603 27.832C33.5603 26.798 33.4283 25.775 33.1643 24.763C32.9223 23.729 32.7133 22.761 32.5373 21.859C32.0313 22.695 31.4923 23.498 30.9203 24.268C30.3703 25.016 29.8423 25.643 29.3363 26.149C29.6663 26.853 30.1723 27.513 30.8543 28.129C31.5583 28.745 32.4163 29.163 33.4283 29.383ZM40.5803 32.254C40.1623 32.254 39.8323 31.902 39.5903 31.198C39.3483 30.494 39.2273 29.702 39.2273 28.822C39.2273 27.766 39.4033 26.512 39.7553 25.06C40.1073 23.608 40.5693 22.079 41.1413 20.473C41.7133 18.867 42.3513 17.294 43.0553 15.754C43.7813 14.214 44.5183 12.817 45.2663 11.563C46.0143 10.309 46.7183 9.308 47.3783 8.56C48.0383 7.812 48.6103 7.438 49.0943 7.438C49.4903 7.438 49.7653 7.68 49.9193 8.164C50.0953 8.626 50.1833 9.077 50.1833 9.517C50.1833 10.133 50.0403 10.881 49.7543 11.761C49.4903 12.641 49.1163 13.587 48.6323 14.599C48.1483 15.589 47.5873 16.568 46.9493 17.536C46.3113 18.504 45.6183 19.395 44.8703 20.209C44.1223 21.001 43.3633 21.628 42.5933 22.09C42.3293 22.728 42.0983 23.443 41.9003 24.235C41.7243 25.027 41.5923 25.808 41.5043 26.578C41.4163 27.326 41.3723 27.997 41.3723 28.591C41.3723 28.833 41.3723 29.042 41.3723 29.218C41.3943 29.394 41.4163 29.559 41.4383 29.713C41.7463 28.811 42.0763 27.942 42.4283 27.106C42.8023 26.248 43.1983 25.467 43.6163 24.763C44.0343 24.037 44.4743 23.41 44.9363 22.882C45.4203 22.332 45.9263 21.914 46.4543 21.628C46.9823 21.32 47.5433 21.166 48.1373 21.166C48.7533 21.166 49.2373 21.32 49.5893 21.628C49.9633 21.914 50.2273 22.288 50.3813 22.75C50.5573 23.19 50.6453 23.652 50.6453 24.136C50.6453 24.818 50.5243 25.478 50.2823 26.116C50.0623 26.754 49.8313 27.37 49.5893 27.964C49.3473 28.558 49.2263 29.13 49.2263 29.68C49.2263 30.12 49.3143 30.439 49.4903 30.637C49.6883 30.835 49.9303 30.934 50.2163 30.934C50.7223 30.934 51.2833 30.692 51.8993 30.208C52.5373 29.724 53.1643 29.086 53.7803 28.294C54.3963 27.48 54.9243 26.6 55.3643 25.654L55.7933 26.05C55.3313 27.128 54.7703 28.107 54.1103 28.987C53.4503 29.845 52.7243 30.527 51.9323 31.033C51.1403 31.539 50.3153 31.792 49.4573 31.792C48.7093 31.792 48.1373 31.594 47.7413 31.198C47.3673 30.802 47.1803 30.307 47.1803 29.713C47.1803 29.251 47.2683 28.734 47.4443 28.162C47.6203 27.59 47.7853 27.007 47.9393 26.413C48.1153 25.819 48.2033 25.258 48.2033 24.73C48.2033 24.158 48.0823 23.751 47.8403 23.509C47.5983 23.267 47.3013 23.146 46.9493 23.146C46.3993 23.146 45.9043 23.366 45.4643 23.806C45.0243 24.246 44.6173 24.818 44.2433 25.522C43.8913 26.204 43.5503 26.93 43.2203 27.7C42.9123 28.47 42.6153 29.207 42.3293 29.911C42.0433 30.593 41.7573 31.154 41.4713 31.594C41.1853 32.034 40.8883 32.254 40.5803 32.254ZM43.0223 20.803C43.6383 20.319 44.2323 19.703 44.8043 18.955C45.3983 18.207 45.9483 17.415 46.4543 16.579C46.9603 15.721 47.4113 14.885 47.8073 14.071C48.2033 13.257 48.5113 12.52 48.7313 11.86C48.9513 11.2 49.0613 10.705 49.0613 10.375C49.0613 10.265 49.0503 10.199 49.0283 10.177C49.0063 10.133 48.9733 10.111 48.9293 10.111C48.7753 10.111 48.4563 10.419 47.9723 11.035C47.5103 11.629 46.9713 12.432 46.3553 13.444C45.7393 14.456 45.1343 15.6 44.5403 16.876C43.9463 18.152 43.4403 19.461 43.0223 20.803ZM57.0996 31.858C56.2416 31.858 55.6036 31.583 55.1856 31.033C54.7676 30.505 54.5586 29.856 54.5586 29.086C54.5586 28.58 54.6466 27.942 54.8226 27.172C55.0206 26.402 55.2736 25.599 55.5816 24.763C55.8896 23.905 56.2416 23.102 56.6376 22.354C57.0556 21.606 57.4956 21.001 57.9576 20.539C58.4196 20.055 58.8706 19.813 59.3106 19.813C59.5086 19.813 59.6736 19.879 59.8056 20.011C59.9596 20.121 60.0366 20.297 60.0366 20.539C60.0366 20.803 59.8606 21.232 59.5086 21.826C59.1786 22.42 58.7826 23.102 58.3206 23.872C57.8586 24.642 57.4516 25.456 57.0996 26.314C56.7696 27.15 56.6046 27.953 56.6046 28.723C56.6046 29.515 56.7366 30.043 57.0006 30.307C57.2646 30.571 57.6716 30.703 58.2216 30.703C58.9696 30.703 59.7616 30.329 60.5976 29.581C61.4556 28.833 62.3576 27.524 63.3036 25.654L63.6006 25.984C62.9626 27.876 62.0386 29.328 60.8286 30.34C59.6406 31.352 58.3976 31.858 57.0996 31.858ZM61.0596 16.744C60.7076 16.744 60.3886 16.656 60.1026 16.48C59.8386 16.304 59.7066 16.029 59.7066 15.655C59.7066 15.193 59.9706 14.797 60.4986 14.467C61.0486 14.115 61.5876 13.939 62.1156 13.939C62.4456 13.939 62.7096 14.016 62.9076 14.17C63.1056 14.324 63.2046 14.588 63.2046 14.962C63.2046 15.38 62.9736 15.787 62.5116 16.183C62.0716 16.557 61.5876 16.744 61.0596 16.744ZM64.9606 32.056C64.0146 32.056 63.3436 31.759 62.9476 31.165C62.5516 30.593 62.3536 29.889 62.3536 29.053C62.3536 28.371 62.4636 27.667 62.6836 26.941C62.9036 26.215 63.1896 25.533 63.5416 24.895C63.9156 24.257 64.3226 23.74 64.7626 23.344C65.2246 22.948 65.6866 22.75 66.1486 22.75C66.2586 22.75 66.3686 22.772 66.4786 22.816C66.6106 22.838 66.7316 22.871 66.8416 22.915C66.6436 23.091 66.4016 23.421 66.1156 23.905C65.8516 24.367 65.5986 24.906 65.3566 25.522C65.1146 26.116 64.9056 26.71 64.7296 27.304C64.5756 27.898 64.4986 28.404 64.4986 28.822C64.4986 29.482 64.6086 29.966 64.8286 30.274C65.0486 30.56 65.3346 30.703 65.6866 30.703C66.1486 30.703 66.6986 30.461 67.3366 29.977C67.9746 29.471 68.6016 28.833 69.2176 28.063C68.6016 27.557 68.1176 26.897 67.7656 26.083C67.4356 25.247 67.2706 24.4 67.2706 23.542C67.2706 22.816 67.3916 22.134 67.6336 21.496C67.8976 20.858 68.2716 20.352 68.7556 19.978C69.2396 19.582 69.8226 19.384 70.5046 19.384C71.4066 19.384 72.0116 19.626 72.3196 20.11C72.6276 20.594 72.7816 21.199 72.7816 21.925C72.7816 22.783 72.5726 23.74 72.1546 24.796C71.7366 25.83 71.2086 26.831 70.5706 27.799C70.9666 28.019 71.3846 28.129 71.8246 28.129C72.1766 28.129 72.5726 28.063 73.0126 27.931C73.4526 27.777 73.8816 27.524 74.2996 27.172C74.7396 26.82 75.0916 26.347 75.3556 25.753L75.7516 26.083C75.3116 27.117 74.6846 27.854 73.8706 28.294C73.0786 28.712 72.3196 28.921 71.5936 28.921C71.3076 28.921 71.0326 28.899 70.7686 28.855C70.5046 28.789 70.2516 28.701 70.0096 28.591C69.2616 29.581 68.4366 30.406 67.5346 31.066C66.6546 31.726 65.7966 32.056 64.9606 32.056ZM69.8116 27.205C70.3616 26.391 70.8126 25.544 71.1646 24.664C71.5386 23.762 71.7256 22.915 71.7256 22.123C71.7256 21.485 71.6266 21.023 71.4286 20.737C71.2526 20.429 71.0216 20.275 70.7356 20.275C70.2956 20.275 69.8446 20.594 69.3826 21.232C68.9206 21.87 68.6896 22.673 68.6896 23.641C68.6896 24.279 68.7776 24.928 68.9536 25.588C69.1516 26.226 69.4376 26.765 69.8116 27.205ZM85.3953 31.66C84.6253 31.66 84.0423 31.462 83.6463 31.066C83.2723 30.67 83.0853 30.164 83.0853 29.548C83.0853 29.086 83.1623 28.602 83.3163 28.096C83.4923 27.59 83.6573 27.073 83.8113 26.545C83.9653 25.995 84.0423 25.467 84.0423 24.961C84.0423 24.345 83.9103 23.927 83.6463 23.707C83.4043 23.465 83.0963 23.344 82.7223 23.344C82.0403 23.344 81.3473 23.63 80.6433 24.202C79.9393 24.752 79.2573 25.467 78.5973 26.347C77.9373 27.205 77.3213 28.096 76.7493 29.02C76.1773 29.944 75.6713 30.769 75.2313 31.495C74.8793 31.495 74.5493 31.429 74.2413 31.297C73.9113 31.187 73.6583 31.011 73.4823 30.769C73.4823 30.659 73.6033 30.318 73.8453 29.746C74.0653 29.174 74.3293 28.47 74.6373 27.634C74.9453 26.798 75.2203 25.94 75.4623 25.06C75.7043 24.18 75.8253 23.377 75.8253 22.651C75.9573 22.497 76.1663 22.343 76.4523 22.189C76.7383 22.035 77.0353 21.958 77.3433 21.958C77.9373 21.958 78.2343 22.244 78.2343 22.816C78.2343 23.168 78.1353 23.762 77.9373 24.598C77.7393 25.412 77.4863 26.27 77.1783 27.172C77.7723 26.27 78.4323 25.379 79.1583 24.499C79.9063 23.597 80.6983 22.849 81.5343 22.255C82.3703 21.661 83.2063 21.364 84.0423 21.364C84.9003 21.364 85.5163 21.672 85.8903 22.288C86.2863 22.904 86.4843 23.586 86.4843 24.334C86.4843 25.016 86.3743 25.654 86.1543 26.248C85.9343 26.82 85.7033 27.381 85.4613 27.931C85.2413 28.459 85.1313 28.998 85.1313 29.548C85.1313 30.01 85.2193 30.34 85.3953 30.538C85.5933 30.714 85.8353 30.802 86.1213 30.802C86.6713 30.802 87.2213 30.549 87.7713 30.043C88.3213 29.515 88.8493 28.855 89.3553 28.063C89.8833 27.271 90.3453 26.468 90.7413 25.654L91.1043 26.083C90.6423 27.161 90.1253 28.118 89.5533 28.954C88.9813 29.79 88.3543 30.45 87.6723 30.934C86.9903 31.418 86.2313 31.66 85.3953 31.66Z" fill="black"/>
<path d="M14.5563 64.855C14.5563 65.4963 14.6056 65.965 14.7043 66.261C14.803 66.5323 14.988 66.7173 15.2593 66.816C15.5553 66.9147 16.024 66.964 16.6653 66.964H17.9233C19.8473 66.964 21.5123 66.4583 22.9183 65.447C24.3243 64.411 25.2616 63.0173 25.7303 61.266C25.7303 61.2167 25.7796 61.192 25.8783 61.192C25.9276 61.192 25.977 61.2167 26.0263 61.266C26.1003 61.2907 26.1373 61.3153 26.1373 61.34C25.9153 63.782 25.8043 65.817 25.8043 67.445C25.8043 67.6423 25.755 67.7903 25.6563 67.889C25.5823 67.963 25.4466 68 25.2493 68H7.78529C7.73596 68 7.71129 67.926 7.71129 67.778C7.71129 67.63 7.73596 67.556 7.78529 67.556C8.57463 67.556 9.14196 67.4943 9.48729 67.371C9.85729 67.2477 10.104 67.0133 10.2273 66.668C10.3753 66.298 10.4493 65.743 10.4493 65.003V47.872C10.4493 47.132 10.3753 46.5893 10.2273 46.244C10.104 45.8987 9.85729 45.6643 9.48729 45.541C9.11729 45.393 8.54996 45.319 7.78529 45.319C7.73596 45.319 7.71129 45.245 7.71129 45.097C7.71129 44.949 7.73596 44.875 7.78529 44.875L9.67229 44.912C10.807 44.9613 11.7443 44.986 12.4843 44.986C13.2243 44.986 14.1616 44.9613 15.2963 44.912L17.1833 44.875C17.2573 44.875 17.2943 44.949 17.2943 45.097C17.2943 45.245 17.2573 45.319 17.1833 45.319C16.4186 45.319 15.8513 45.393 15.4813 45.541C15.1113 45.6643 14.8646 45.911 14.7413 46.281C14.618 46.6263 14.5563 47.169 14.5563 47.909V64.855ZM35.2364 65.003C35.2364 65.7677 35.2981 66.3227 35.4214 66.668C35.5447 67.0133 35.7791 67.2477 36.1244 67.371C36.4944 67.4943 37.0741 67.556 37.8634 67.556C37.9374 67.556 37.9744 67.63 37.9744 67.778C37.9744 67.926 37.9374 68 37.8634 68C37.0494 68 36.4081 67.9877 35.9394 67.963L33.1274 67.926L30.3894 67.963C29.8961 67.9877 29.2301 68 28.3914 68C28.3421 68 28.3174 67.926 28.3174 67.778C28.3174 67.63 28.3421 67.556 28.3914 67.556C29.1807 67.556 29.7604 67.4943 30.1304 67.371C30.5004 67.2477 30.7471 67.0133 30.8704 66.668C31.0184 66.298 31.0924 65.743 31.0924 65.003V47.872C31.0924 47.132 31.0184 46.5893 30.8704 46.244C30.7471 45.8987 30.5004 45.6643 30.1304 45.541C29.7604 45.393 29.1807 45.319 28.3914 45.319C28.3421 45.319 28.3174 45.245 28.3174 45.097C28.3174 44.949 28.3421 44.875 28.3914 44.875L30.3894 44.912C31.5241 44.9613 32.4367 44.986 33.1274 44.986C33.8921 44.986 34.8417 44.9613 35.9764 44.912L37.8634 44.875C37.9374 44.875 37.9744 44.949 37.9744 45.097C37.9744 45.245 37.9374 45.319 37.8634 45.319C37.0987 45.319 36.5314 45.393 36.1614 45.541C35.7914 45.689 35.5447 45.948 35.4214 46.318C35.2981 46.6633 35.2364 47.206 35.2364 47.946V65.003ZM64.0889 44.875C64.1629 44.875 64.1999 44.949 64.1999 45.097C64.1999 45.245 64.1629 45.319 64.0889 45.319C63.2009 45.319 62.3499 45.7137 61.5359 46.503C60.7219 47.2923 60.0682 48.353 59.5749 49.685L52.7299 67.963C52.7052 68.0617 52.5696 68.111 52.3229 68.111C52.0762 68.111 51.9406 68.0617 51.9159 67.963L42.4809 47.946C42.0369 47.058 41.5929 46.4043 41.1489 45.985C40.7049 45.541 40.2116 45.319 39.6689 45.319C39.5949 45.319 39.5579 45.245 39.5579 45.097C39.5579 44.949 39.5949 44.875 39.6689 44.875C40.0389 44.875 40.2979 44.8873 40.4459 44.912C40.9392 44.9613 41.5806 44.986 42.3699 44.986C44.4912 44.986 46.2919 44.9613 47.7719 44.912C48.1666 44.8873 48.6599 44.875 49.2519 44.875C49.3259 44.875 49.3629 44.949 49.3629 45.097C49.3629 45.245 49.3259 45.319 49.2519 45.319C48.5119 45.319 47.9322 45.4793 47.5129 45.8C47.1182 46.096 46.9209 46.5277 46.9209 47.095C46.9209 47.5143 47.0566 48.02 47.3279 48.612L53.7289 62.265L58.5389 49.574C58.7856 48.8833 58.9089 48.2913 58.9089 47.798C58.9089 47.0333 58.6746 46.429 58.2059 45.985C57.7619 45.541 57.1082 45.319 56.2449 45.319C56.1709 45.319 56.1339 45.245 56.1339 45.097C56.1339 44.949 56.1709 44.875 56.2449 44.875L58.0579 44.912C59.0939 44.9613 60.0189 44.986 60.8329 44.986C61.3016 44.986 61.8812 44.9613 62.5719 44.912L64.0889 44.875ZM82.2617 62.117C82.2617 62.0677 82.311 62.043 82.4097 62.043C82.4837 62.043 82.5453 62.0677 82.5947 62.117C82.6687 62.1417 82.7057 62.1663 82.7057 62.191C82.459 64.115 82.3357 65.8663 82.3357 67.445C82.3357 67.6423 82.2987 67.7903 82.2247 67.889C82.1507 67.963 82.0027 68 81.7807 68H65.4267C65.3527 68 65.3157 67.926 65.3157 67.778C65.3157 67.63 65.3527 67.556 65.4267 67.556C66.216 67.556 66.7833 67.4943 67.1287 67.371C67.4987 67.2477 67.7453 67.0133 67.8687 66.668C67.992 66.298 68.0537 65.743 68.0537 65.003V47.872C68.0537 47.132 67.992 46.5893 67.8687 46.244C67.7453 45.8987 67.4987 45.6643 67.1287 45.541C66.7587 45.393 66.1913 45.319 65.4267 45.319C65.3527 45.319 65.3157 45.245 65.3157 45.097C65.3157 44.949 65.3527 44.875 65.4267 44.875H81.1147C81.3613 44.875 81.4847 44.986 81.4847 45.208L81.5587 50.129C81.5587 50.1783 81.4847 50.2153 81.3367 50.24C81.2133 50.2647 81.1393 50.24 81.1147 50.166C80.72 48.7353 80.054 47.6747 79.1167 46.984C78.1793 46.2933 76.946 45.948 75.4167 45.948H74.3067C73.5667 45.948 73.024 46.1083 72.6787 46.429C72.3333 46.7497 72.1607 47.243 72.1607 47.909V55.457H75.2317C76.6623 55.457 77.76 55.2103 78.5247 54.717C79.2893 54.2237 79.6717 53.533 79.6717 52.645C79.6717 52.571 79.7333 52.534 79.8567 52.534C80.0047 52.534 80.0787 52.571 80.0787 52.645L80.0417 55.975L80.0787 57.751C80.128 58.5897 80.1527 59.2557 80.1527 59.749C80.1527 59.7983 80.0787 59.823 79.9307 59.823C79.7827 59.823 79.7087 59.7983 79.7087 59.749C79.7087 58.7377 79.314 57.9483 78.5247 57.381C77.76 56.789 76.65 56.493 75.1947 56.493H72.1607V64.855C72.1607 65.5703 72.2963 66.1007 72.5677 66.446C72.839 66.7913 73.2707 66.964 73.8627 66.964H75.0837C77.0077 66.964 78.5493 66.5693 79.7087 65.78C80.868 64.9907 81.719 63.7697 82.2617 62.117Z" fill="black"/>
</svg>
