<svg width="180" height="48" viewBox="0 0 180 48" fill="none" xmlns="http://www.w3.org/2000/svg">
<path d="M90.1885 17.4702H88.6943V11.4146H81.9443V17.4702H80.4502V4.62061H81.9443V10.0962H88.6943V4.62061H90.1885V17.4702ZM104.841 17.4702L103.259 13.3921H98.1088L96.5356 17.4702H95.0239L100.051 4.56787H101.396L106.388 17.4702H104.841ZM102.811 12.0649L101.308 8.01318C101.273 7.90771 101.214 7.73486 101.132 7.49463C101.056 7.25439 100.977 7.00537 100.895 6.74756C100.813 6.48975 100.746 6.28174 100.693 6.12354C100.634 6.36377 100.57 6.604 100.499 6.84424C100.435 7.07861 100.371 7.29834 100.306 7.50342C100.242 7.70264 100.186 7.87256 100.139 8.01318L98.6098 12.0649H102.811ZM121.278 17.4702H119.556L112.551 6.67725H112.48C112.498 6.96436 112.518 7.29248 112.542 7.66162C112.565 8.0249 112.583 8.41455 112.595 8.83057C112.612 9.24072 112.621 9.65967 112.621 10.0874V17.4702H111.232V4.62061H112.946L119.925 15.3784H119.986C119.974 15.1733 119.96 14.8833 119.942 14.5083C119.925 14.1274 119.907 13.7202 119.89 13.2866C119.878 12.8472 119.872 12.4399 119.872 12.0649V4.62061H121.278V17.4702ZM138.049 10.9224C138.049 12.3696 137.785 13.5796 137.258 14.5522C136.731 15.519 135.966 16.2485 134.964 16.7407C133.968 17.2271 132.758 17.4702 131.334 17.4702H127.845V4.62061H131.721C133.028 4.62061 134.153 4.86084 135.096 5.34131C136.039 5.81592 136.766 6.52197 137.276 7.45947C137.791 8.39111 138.049 9.54541 138.049 10.9224ZM136.476 10.9751C136.476 9.8208 136.283 8.86865 135.896 8.11865C135.515 7.36865 134.952 6.81201 134.208 6.44873C133.47 6.07959 132.565 5.89502 131.493 5.89502H129.339V16.187H131.159C132.928 16.187 134.255 15.7505 135.14 14.8774C136.031 14.0044 136.476 12.7036 136.476 10.9751ZM85.9434 25.7544C85.2344 25.7544 84.5957 25.8774 84.0273 26.1235C83.4648 26.3638 82.9844 26.7153 82.5859 27.1782C82.1934 27.6353 81.8916 28.189 81.6807 28.8394C81.4697 29.4897 81.3643 30.2222 81.3643 31.0366C81.3643 32.1147 81.5312 33.0522 81.8652 33.8491C82.2051 34.6401 82.709 35.2524 83.377 35.686C84.0508 36.1196 84.8916 36.3364 85.8994 36.3364C86.4736 36.3364 87.0127 36.2896 87.5166 36.1958C88.0264 36.0962 88.5215 35.9731 89.002 35.8267V37.1274C88.5332 37.3032 88.041 37.4321 87.5254 37.5142C87.0098 37.6021 86.3975 37.646 85.6885 37.646C84.3818 37.646 83.2891 37.3765 82.4102 36.8374C81.5371 36.2925 80.8809 35.5249 80.4414 34.5347C80.0078 33.5444 79.791 32.3755 79.791 31.0278C79.791 30.0552 79.9258 29.1675 80.1953 28.3647C80.4707 27.5562 80.8691 26.8589 81.3906 26.2729C81.918 25.687 82.5625 25.2358 83.3242 24.9194C84.0918 24.5972 84.9707 24.436 85.9609 24.436C86.6113 24.436 87.2383 24.5005 87.8418 24.6294C88.4453 24.7583 88.9902 24.9429 89.4766 25.1831L88.8789 26.4487C88.4688 26.2612 88.0176 26.1001 87.5254 25.9653C87.0391 25.8247 86.5117 25.7544 85.9434 25.7544ZM98.3198 24.6206C99.3745 24.6206 100.245 24.7524 100.93 25.0161C101.622 25.2739 102.137 25.6694 102.477 26.2026C102.817 26.7358 102.987 27.4155 102.987 28.2417C102.987 28.9214 102.864 29.4897 102.618 29.9468C102.372 30.3979 102.049 30.7642 101.651 31.0454C101.252 31.3267 100.828 31.5435 100.376 31.6958L103.901 37.4702H102.161L99.0141 32.1089H96.3422V37.4702H94.8481V24.6206H98.3198ZM98.2319 25.9126H96.3422V30.8433H98.3813C99.4301 30.8433 100.201 30.6294 100.693 30.2017C101.191 29.7739 101.44 29.144 101.44 28.312C101.44 27.439 101.176 26.8208 100.649 26.4575C100.127 26.0942 99.3217 25.9126 98.2319 25.9126ZM117.077 37.4702L115.495 33.3921H110.345L108.771 37.4702H107.26L112.287 24.5679H113.632L118.624 37.4702H117.077ZM115.047 32.0649L113.544 28.0132C113.509 27.9077 113.45 27.7349 113.368 27.4946C113.292 27.2544 113.213 27.0054 113.131 26.7476C113.049 26.4897 112.981 26.2817 112.929 26.1235C112.87 26.3638 112.806 26.604 112.735 26.8442C112.671 27.0786 112.606 27.2983 112.542 27.5034C112.477 27.7026 112.422 27.8726 112.375 28.0132L110.846 32.0649H115.047ZM124.962 37.4702H123.468V24.6206H130.622V25.939H124.962V30.6499H130.28V31.9595H124.962V37.4702ZM139.773 37.4702H138.27V25.939H134.227V24.6206H143.799V25.939H139.773V37.4702ZM155.955 37.4702H148.801V24.6206H155.955V25.939H150.295V30.0962H155.63V31.397H150.295V36.1519H155.955V37.4702ZM172.067 30.9224C172.067 32.3696 171.803 33.5796 171.276 34.5522C170.749 35.519 169.984 36.2485 168.982 36.7407C167.986 37.2271 166.776 37.4702 165.352 37.4702H161.863V24.6206H165.739C167.046 24.6206 168.171 24.8608 169.114 25.3413C170.057 25.8159 170.784 26.522 171.294 27.4595C171.809 28.3911 172.067 29.5454 172.067 30.9224ZM170.494 30.9751C170.494 29.8208 170.3 28.8687 169.914 28.1187C169.533 27.3687 168.97 26.812 168.226 26.4487C167.488 26.0796 166.583 25.895 165.51 25.895H163.357V36.187H165.176C166.946 36.187 168.273 35.7505 169.158 34.8774C170.048 34.0044 170.494 32.7036 170.494 30.9751Z" fill="black"/>
<path d="M33.3364 37.8002C32.8931 37.8002 32.5431 37.4269 32.2864 36.6802C32.0297 35.9335 31.9014 35.0935 31.9014 34.1602C31.9014 33.0402 32.0881 31.7102 32.4614 30.1702C32.8347 28.6302 33.3247 27.0085 33.9314 25.3052C34.5381 23.6019 35.2147 21.9335 35.9614 20.3002C36.7314 18.6669 37.5131 17.1852 38.3064 15.8552C39.0997 14.5252 39.8464 13.4635 40.5464 12.6702C41.2464 11.8769 41.8531 11.4802 42.3664 11.4802C42.7864 11.4802 43.0781 11.7369 43.2414 12.2502C43.4281 12.7402 43.5214 13.2185 43.5214 13.6852C43.5214 14.3385 43.3697 15.1319 43.0664 16.0652C42.7864 16.9985 42.3897 18.0019 41.8764 19.0752C41.3631 20.1252 40.7681 21.1635 40.0914 22.1902C39.4147 23.2169 38.6797 24.1619 37.8864 25.0252C37.0931 25.8652 36.2881 26.5302 35.4714 27.0202C35.1914 27.6969 34.9464 28.4552 34.7364 29.2952C34.5497 30.1352 34.4097 30.9635 34.3164 31.7802C34.2231 32.5735 34.1764 33.2852 34.1764 33.9152C34.1764 34.1719 34.1764 34.3935 34.1764 34.5802C34.1997 34.7669 34.2231 34.9419 34.2464 35.1052C34.5731 34.1485 34.9231 33.2269 35.2964 32.3402C35.6931 31.4302 36.1131 30.6019 36.5564 29.8552C36.9997 29.0852 37.4664 28.4202 37.9564 27.8602C38.4697 27.2769 39.0064 26.8335 39.5664 26.5302C40.1264 26.2035 40.7214 26.0402 41.3514 26.0402C42.0047 26.0402 42.5181 26.2035 42.8914 26.5302C43.2881 26.8335 43.5681 27.2302 43.7314 27.7202C43.9181 28.1869 44.0114 28.6769 44.0114 29.1902C44.0114 29.9135 43.8831 30.6135 43.6264 31.2902C43.3931 31.9669 43.1481 32.6202 42.8914 33.2502C42.6347 33.8802 42.5064 34.4869 42.5064 35.0702C42.5064 35.5369 42.5997 35.8752 42.7864 36.0852C42.9964 36.2952 43.2531 36.4002 43.5564 36.4002C44.0931 36.4002 44.6881 36.1435 45.3414 35.6302C46.0181 35.1169 46.6831 34.4402 47.3364 33.6002C47.9897 32.7369 48.5497 31.8035 49.0164 30.8002L49.4714 31.2202C48.9814 32.3635 48.3864 33.4019 47.6864 34.3352C46.9864 35.2452 46.2164 35.9685 45.3764 36.5052C44.5364 37.0419 43.6614 37.3102 42.7514 37.3102C41.9581 37.3102 41.3514 37.1002 40.9314 36.6802C40.5347 36.2602 40.3364 35.7352 40.3364 35.1052C40.3364 34.6152 40.4297 34.0669 40.6164 33.4602C40.8031 32.8535 40.9781 32.2352 41.1414 31.6052C41.3281 30.9752 41.4214 30.3802 41.4214 29.8202C41.4214 29.2135 41.2931 28.7819 41.0364 28.5252C40.7797 28.2685 40.4647 28.1402 40.0914 28.1402C39.5081 28.1402 38.9831 28.3735 38.5164 28.8402C38.0497 29.3069 37.6181 29.9135 37.2214 30.6602C36.8481 31.3835 36.4864 32.1535 36.1364 32.9702C35.8097 33.7869 35.4947 34.5685 35.1914 35.3152C34.8881 36.0385 34.5847 36.6335 34.2814 37.1002C33.9781 37.5669 33.6631 37.8002 33.3364 37.8002ZM35.9264 25.6552C36.5797 25.1419 37.2097 24.4885 37.8164 23.6952C38.4464 22.9019 39.0297 22.0619 39.5664 21.1752C40.1031 20.2652 40.5814 19.3785 41.0014 18.5152C41.4214 17.6519 41.7481 16.8702 41.9814 16.1702C42.2147 15.4702 42.3314 14.9452 42.3314 14.5952C42.3314 14.4785 42.3197 14.4085 42.2964 14.3852C42.2731 14.3385 42.2381 14.3152 42.1914 14.3152C42.0281 14.3152 41.6897 14.6419 41.1764 15.2952C40.6864 15.9252 40.1147 16.7769 39.4614 17.8502C38.8081 18.9235 38.1664 20.1369 37.5364 21.4902C36.9064 22.8435 36.3697 24.2319 35.9264 25.6552Z" fill="black"/>
<path d="M20.6921 45.4706C10.1915 35.9708 8.69238 11.9702 24.1916 0.470612" stroke="black"/>
<path d="M55.827 0.47078C70.6924 15.4703 70.1924 30.9703 58.6919 44.4703" stroke="black"/>
<path d="M16.1918 8.47043C15.9581 7.77741 16.121 9.43045 16.1571 9.77559C16.1669 9.86406 16.165 9.85124 16.1571 9.77559C16.1539 9.7464 16.1494 9.70616 16.1435 9.65351C16.0551 8.87063 15.1938 5.47034 15.6925 2.97034L15.6931 2.96872C15.775 2.76075 16.1934 1.69777 16.8175 1.47055C18.1911 0.970469 17.5381 6.06476 17.6911 6.37939C17.6911 8.69635 17.6364 5.92558 17.5221 6.37952C17.4717 6.57952 17.1664 4.8786 17.1228 5.07902C17.1915 6.47055 17.2223 6.26913 17.1915 6.47055C17.1582 6.68826 16.9819 6.16062 16.9819 6.37952C16.9819 6.4424 16.9621 6.49748 16.9584 6.56134C16.9529 6.65701 16.2696 8.44032 16.1918 8.47043Z" fill="black"/>
<path d="M15.6925 2.97034C15.1938 5.47034 16.0551 8.87063 16.1435 9.65351C16.2496 10.5935 15.89 7.5754 16.1918 8.47043C16.2696 8.44032 16.9529 6.65701 16.9584 6.56134C16.9621 6.49748 16.9819 6.4424 16.9819 6.37952C16.9819 6.16062 17.1582 6.68826 17.1915 6.47055C17.2223 6.26913 17.1915 6.47055 17.1228 5.07902C17.1664 4.8786 17.4717 6.57952 17.5221 6.37952C17.6364 5.92558 17.6911 8.69635 17.6911 6.37939C17.5381 6.06476 18.1911 0.970469 16.8175 1.47055C16.1918 1.69837 15.7728 2.76633 15.6925 2.97034ZM15.6925 2.97034C15.6926 2.47034 15.5126 3.42735 15.6925 2.97034Z" stroke="black" stroke-linecap="round"/>
<path d="M64.0921 10.0108C64.3066 9.16966 64.1572 11.1749 64.124 11.5949C64.115 11.703 64.1167 11.6873 64.124 11.5949C64.1269 11.5595 64.131 11.5108 64.1365 11.4472C64.2176 10.4967 65.0086 6.36831 64.5506 3.33303L64.55 3.33107C64.4748 3.07857 64.0906 1.78799 63.5175 1.51212C62.2562 0.904965 62.8558 7.09001 62.7153 7.47201C62.7153 10.2851 62.7656 6.92103 62.8705 7.47217C62.9167 7.71499 63.1971 5.64988 63.2371 5.89321C63.1741 7.58269 63.1458 7.33814 63.1741 7.58269C63.2047 7.84701 63.3665 7.2064 63.3665 7.47217C63.3665 7.54851 63.2338 8.39268 63.2371 8.47021C63.2422 8.58637 64.0207 9.97421 64.0921 10.0108Z" fill="black"/>
<path d="M64.5506 3.33303C65.0086 6.36831 64.2176 10.4967 64.1365 11.4472C64.039 12.5884 64.3692 8.9241 64.0921 10.0108C64.0207 9.97421 63.2422 8.58637 63.2371 8.47021C63.2338 8.39268 63.3665 7.54851 63.3665 7.47217C63.3665 7.2064 63.2047 7.84701 63.1741 7.58269C63.1458 7.33814 63.1741 7.58269 63.2371 5.89321C63.1971 5.64988 62.9167 7.71499 62.8705 7.47217C62.7656 6.92103 62.7153 10.2851 62.7153 7.47201C62.8558 7.09001 62.2562 0.904965 63.5175 1.51212C64.0921 1.78871 64.4769 3.08534 64.5506 3.33303ZM64.5506 3.33303C64.5505 2.72597 64.7158 3.88789 64.5506 3.33303Z" stroke="black" stroke-linecap="round"/>
<path d="M66.8924 18.9637C66.6474 20.1176 67.3149 16.3442 66.8988 17.4195C66.8327 17.3731 66.6418 15.494 66.6519 15.3746C66.6586 15.295 66.9 14.4492 66.9099 14.3712C66.9445 14.0997 66.7007 14.7338 66.7047 14.4599C66.7084 14.2064 66.7047 14.4599 66.9868 12.7416C66.9787 12.4879 66.4322 14.5626 66.4179 14.3086C66.3854 13.7323 65.8983 17.1631 66.264 14.2889C66.453 13.9163 66.6621 7.52113 67.8344 8.30066C68.3671 8.65485 68.5805 10.022 68.6222 10.2895L68.6226 10.2915C68.6823 13.4506 67.0964 18.0028 66.8924 18.9637Z" fill="black"/>
<path d="M68.6226 10.2915C68.6823 13.4506 67.0964 18.0028 66.8924 18.9637C66.6474 20.1176 67.3149 16.3442 66.8988 17.4195C66.8327 17.3731 66.6418 15.494 66.6519 15.3746C66.6586 15.295 66.9 14.4492 66.9099 14.3712C66.9445 14.0997 66.7007 14.7338 66.7047 14.4599C66.7084 14.2064 66.7047 14.4599 66.9868 12.7416C66.9787 12.4879 66.4322 14.5626 66.4179 14.3086C66.3854 13.7323 65.8983 17.1631 66.264 14.2889C66.453 13.9163 66.6621 7.52113 67.8344 8.30066C68.3685 8.65578 68.5816 10.0292 68.6226 10.2915ZM68.6226 10.2915C68.7014 9.67127 68.7143 10.8793 68.6226 10.2915Z" stroke="black" stroke-linecap="round"/>
<path d="M66.8028 27.8369C66.8028 27.8369 67.988 26.5908 67.2894 27.1039C67.2468 27.0403 67.6733 25.69 67.7196 25.6152C67.7505 25.5653 68.2257 25.1193 68.2589 25.0721C68.3743 24.9077 67.9637 25.211 68.0534 25.0299C68.1364 24.8623 68.0534 25.0299 68.8386 24.0209C68.9115 23.8473 67.7853 24.9639 67.8529 24.7871C68.0063 24.3859 66.5045 26.4383 67.7259 24.6979C68.0068 24.5423 70.2016 20.3713 70.9704 21.4715C71.3197 21.9714 71.0738 22.9906 71.0257 23.19L71.0253 23.1915C70.0823 25.3325 66.8028 27.8369 66.8028 27.8369Z" fill="black"/>
<path d="M71.0253 23.1915C70.0823 25.3325 66.8028 27.8369 66.8028 27.8369C66.8028 27.8369 67.988 26.5908 67.2894 27.1039C67.2468 27.0403 67.6733 25.69 67.7196 25.6152C67.7505 25.5653 68.2257 25.1193 68.2589 25.0721C68.3743 24.9077 67.9637 25.211 68.0534 25.0299C68.1364 24.8623 68.0534 25.0299 68.8386 24.0209C68.9115 23.8473 67.7853 24.9639 67.8529 24.7871C68.0063 24.3859 66.5045 26.4383 67.7259 24.6979C68.0068 24.5423 70.2016 20.3713 70.9704 21.4715C71.3206 21.9727 71.0725 22.9959 71.0253 23.1915ZM71.0253 23.1915C71.2888 22.8159 70.9196 23.6297 71.0253 23.1915Z" stroke="black" stroke-linecap="round"/>
<path d="M70.7902 16.6902C69.8471 18.8311 67.0542 20.6026 67.0542 20.6026C67.0116 20.5389 67.4381 19.1886 67.4845 19.1138C67.5154 19.0639 67.9906 18.6179 68.0237 18.5707C68.1391 18.4063 67.7285 18.7096 67.8182 18.5285C67.9012 18.361 67.8182 18.5285 68.6034 17.5195C68.6763 17.346 67.5501 18.4625 67.6177 18.2857C67.7711 17.8845 66.2693 19.9369 67.4908 18.1965C67.7716 18.0409 69.9664 13.8699 70.7352 14.9701C71.0845 15.47 70.8387 16.4892 70.7906 16.6886L70.7902 16.6902Z" fill="black"/>
<path d="M70.7902 16.6902C69.8471 18.8311 67.0542 20.6026 67.0542 20.6026C67.0116 20.5389 67.4381 19.1886 67.4845 19.1138C67.5154 19.0639 67.9906 18.6179 68.0237 18.5707C68.1391 18.4063 67.7285 18.7096 67.8182 18.5285C67.9012 18.361 67.8182 18.5285 68.6034 17.5195C68.6763 17.346 67.5501 18.4625 67.6177 18.2857C67.7711 17.8845 66.2693 19.9369 67.4908 18.1965C67.7716 18.0409 69.9664 13.8699 70.7352 14.9701C71.0854 15.4713 70.8374 16.4946 70.7902 16.6902ZM70.7902 16.6902C71.0537 16.3145 70.6845 17.1283 70.7902 16.6902Z" stroke="black" stroke-linecap="round"/>
<path d="M65.5932 34.072C66.4598 33.5895 64.6932 34.9704 64.6932 34.9704C64.6932 34.9704 68.5715 32.8338 70.1159 30.6201L70.1167 30.6184C70.2188 30.4082 70.7407 29.3337 70.5031 28.7589C69.9988 27.5387 67.2636 31.4029 66.7689 31.8044C66.7537 31.8145 66.7386 31.8244 66.7239 31.8341C66.7237 31.8342 66.7236 31.8342 66.7235 31.8343C66.7234 31.8344 66.7233 31.8345 66.7232 31.8345C66.4973 31.9832 66.3282 32.0858 66.3709 32.0187C66.6358 31.6014 64.9905 33.5874 66.7232 31.8345C66.7234 31.8344 66.7236 31.8343 66.7239 31.8341C66.7357 31.8291 66.7508 31.8191 66.7689 31.8044C67.1584 31.5464 67.6786 31.1825 67.6044 31.2923C66.5187 32.301 66.6492 32.1287 66.5187 32.301C66.3776 32.4873 66.8874 32.2018 66.7236 32.3674C66.6766 32.415 66.062 32.8478 66.0167 32.8985C65.9487 32.9744 65.5649 33.999 65.5932 34.072Z" fill="black"/>
<path d="M70.1159 30.6201C68.5715 32.8338 64.6932 34.9704 64.6932 34.9704C64.6932 34.9704 66.4598 33.5895 65.5932 34.072C65.5649 33.999 65.9487 32.9744 66.0167 32.8985C66.062 32.8478 66.6766 32.415 66.7236 32.3674C66.8874 32.2018 66.3776 32.4873 66.5187 32.301C66.6492 32.1287 66.5187 32.301 67.6044 31.2923C67.7259 31.1125 66.2541 32.2025 66.3709 32.0187C66.6358 31.6014 64.9903 33.5876 66.7235 31.8343C67.0588 31.695 69.9802 27.4937 70.5031 28.7589C70.7413 29.3352 70.2161 30.4138 70.1159 30.6201ZM70.1159 30.6201C70.4899 30.2416 69.8916 31.082 70.1159 30.6201Z" stroke="black" stroke-linecap="round"/>
<path d="M61.1004 41.379C61.07 41.3887 61.0375 41.3991 61.003 41.4104C61.031 41.4104 61.0638 41.3993 61.1004 41.379C61.9885 41.0969 61.1924 41.4702 61.1924 41.4702C61.1924 41.4702 65.0031 40.3481 67.2451 38.3635L67.2464 38.3619C67.4128 38.1656 68.2637 37.1623 68.1802 36.5348C67.9964 35.1536 63.6686 38.7935 63.2793 38.8766C60.9721 40.3589 63.6746 38.8947 63.2793 39.2733C63.108 39.3684 63.1114 39.3656 63.0155 39.4446C62.8152 39.6096 63.4281 39.4082 63.2102 39.5483C63.1475 39.5885 62.3834 39.9216 62.3216 39.9653C62.2374 40.0249 61.4721 41.1734 61.1004 41.379Z" fill="black"/>
<path d="M67.2451 38.3635C65.0031 40.3481 61.1924 41.4702 61.1924 41.4702C61.1924 41.4702 62.0441 41.0709 61.003 41.4104C61.3147 41.4104 62.2291 40.0307 62.3216 39.9653C62.3834 39.9216 63.1475 39.5885 63.2102 39.5483C63.4281 39.4082 62.8152 39.6096 63.0155 39.4446C63.2008 39.2919 63.0155 39.4446 64.4353 38.6074C64.6132 38.4455 63.1051 39.4402 63.2793 39.2733C63.6746 38.8947 60.9721 40.3589 63.2793 38.8766C63.6686 38.7935 67.9964 35.1536 68.1802 36.5348C68.2639 37.164 67.4084 38.1709 67.2451 38.3635ZM67.2451 38.3635C67.7429 38.0435 66.8793 38.7948 67.2451 38.3635Z" stroke="black" stroke-linecap="round"/>
<path d="M59.4619 44.097C59.333 44.0355 59.1924 43.9703 59.1924 43.9703C59.1924 43.9703 59.269 44.0191 59.406 44.0989C60.1123 44.5109 62.4231 45.7518 64.1019 45.4154L64.1032 45.4149C64.271 45.3444 65.1286 44.9843 65.3258 44.4165C65.7598 43.1669 61.8691 43.79 61.6225 43.6425C61.622 43.6425 61.6215 43.6424 61.621 43.6424C61.1306 43.4301 60.562 43.1897 60.313 43.0614C60.3079 42.9855 60.3005 42.9424 60.1923 42.9704C60.1658 42.9773 60.2143 43.0106 60.313 43.0614C60.3251 43.2414 60.3244 43.6055 61.621 43.6424C62.1131 43.8555 62.5265 44.0402 62.4592 44.055C61.3525 43.9607 61.5138 43.9369 61.3525 43.9607C61.1783 43.9864 61.594 44.1601 61.4196 44.1551C61.3695 44.1537 60.8194 44.0054 60.7684 44.0073C60.6974 44.01 59.7614 44.0836 59.4619 44.097Z" fill="black"/>
<path d="M64.1019 45.4154C62.0975 45.817 59.1924 43.9703 59.1924 43.9703C59.1924 43.9703 60.1111 44.396 59.406 44.0989C59.6165 44.0951 60.6921 44.0102 60.7684 44.0073C60.8194 44.0054 61.3695 44.1537 61.4196 44.1551C61.594 44.1601 61.1783 43.9864 61.3525 43.9607C61.5138 43.9369 61.3525 43.9607 62.4592 44.055C62.62 44.0195 60.0317 43.0122 60.1923 42.9704C60.5569 42.8758 59.7768 43.5903 61.6225 43.6425C61.8691 43.79 65.7598 43.1669 65.3258 44.4165C65.1281 44.9857 64.2665 45.3463 64.1019 45.4154ZM64.1019 45.4154C64.5002 45.4266 63.7332 45.5703 64.1019 45.4154Z" stroke="black" stroke-linecap="round"/>
<path d="M13.1681 15.6582C12.7609 15.0507 13.3516 16.6032 13.477 16.9268C13.5096 17.0096 13.5045 16.9977 13.477 16.9268C13.4662 16.8994 13.4513 16.8618 13.4318 16.8125C13.1412 16.0802 11.4182 13.0249 11.2438 10.4816L11.244 10.4799C11.2684 10.2577 11.3934 9.1222 11.9361 8.73925C13.1304 7.89643 13.8363 12.9837 14.0665 13.2471C14.6742 15.483 13.8947 12.8236 13.9035 13.2916C13.9074 13.4978 13.1666 11.9365 13.1771 12.1413C13.6083 13.4661 13.5852 13.2637 13.6083 13.4661C13.6333 13.685 13.3248 13.222 13.3822 13.4333C13.3987 13.4939 13.394 13.5523 13.4072 13.6149C13.427 13.7086 13.2353 15.6087 13.1681 15.6582Z" fill="black"/>
<path d="M11.2438 10.4816C11.4182 13.0249 13.1412 16.0802 13.4318 16.8125C13.7807 17.6918 12.6422 14.8736 13.1681 15.6582C13.2353 15.6087 13.427 13.7086 13.4072 13.6149C13.394 13.5523 13.3987 13.4939 13.3822 13.4333C13.3248 13.222 13.6333 13.685 13.6083 13.4661C13.5852 13.2637 13.6083 13.4661 13.1771 12.1413C13.1666 11.9365 13.9074 13.4978 13.9035 13.2916C13.8947 12.8236 14.6742 15.483 14.0665 13.2471C13.8363 12.9837 13.1304 7.89643 11.9361 8.73925C11.392 9.12321 11.2678 10.2637 11.2438 10.4816ZM11.2438 10.4816C11.1128 9.99907 11.19 10.9698 11.2438 10.4816Z" stroke="black" stroke-linecap="round"/>
<path d="M12.079 20.913C11.5931 20.4455 12.3972 21.7325 12.567 22.0002C12.611 22.0686 12.6043 22.0589 12.567 22.0002C12.5525 21.9776 12.5325 21.9465 12.5062 21.9059C12.1152 21.3013 9.98736 18.8835 9.44169 16.6125L9.44162 16.6109C9.43257 16.4044 9.38631 15.3488 9.85762 14.8902C10.8949 13.8807 12.3337 18.35 12.5966 18.5418C13.5183 20.4451 12.3668 18.1929 12.4446 18.6156C12.4788 18.8018 11.5274 17.5376 11.5679 17.7213C12.1832 18.8344 12.1309 18.6555 12.1832 18.8344C12.2398 19.0278 11.8713 18.6712 11.9584 18.851C11.9834 18.9026 11.9875 18.9565 12.0096 19.0106C12.0427 19.0916 12.1371 20.8543 12.079 20.913Z" fill="black"/>
<path d="M9.44169 16.6125C9.98736 18.8835 12.1152 21.3013 12.5062 21.9059C12.9756 22.6318 11.4514 20.3093 12.079 20.913C12.1371 20.8543 12.0427 19.0916 12.0096 19.0106C11.9875 18.9565 11.9834 18.9026 11.9584 18.851C11.8713 18.6712 12.2398 19.0278 12.1832 18.8344C12.1309 18.6555 12.1832 18.8344 11.5679 17.7213C11.5274 17.5376 12.4788 18.8018 12.4446 18.6156C12.3668 18.1929 13.5183 20.4451 12.5966 18.5418C12.3337 18.35 10.8949 13.8807 9.85762 14.8902C9.38507 15.35 9.43282 16.4099 9.44169 16.6125ZM9.44169 16.6125C9.24291 16.2017 9.46157 17.0663 9.44169 16.6125Z" stroke="black" stroke-linecap="round"/>
<path d="M12.1214 26.9592C11.5579 26.6717 12.6057 27.6177 12.826 27.8138C12.8828 27.8637 12.8743 27.8568 12.826 27.8138C12.8072 27.7973 12.7813 27.7746 12.7474 27.745C12.2427 27.3044 9.69213 25.7059 8.66729 23.7836L8.66686 23.7821C8.61194 23.5956 8.33125 22.642 8.67293 22.0853C9.42493 20.8602 11.7861 24.5376 12.0772 24.6371C13.3743 26.1137 11.7821 24.384 11.9504 24.7487C12.0245 24.9094 10.8429 24.0269 10.9224 24.1834C11.7529 25.0249 11.6633 24.8762 11.7529 25.0249C11.8498 25.1857 11.422 24.9657 11.5445 25.1052C11.5797 25.1453 11.5957 25.1935 11.6287 25.2366C11.6781 25.3012 12.163 26.8886 12.1214 26.9592Z" fill="black"/>
<path d="M8.66729 23.7836C9.69213 25.7059 12.2427 27.3044 12.7474 27.745C13.3533 28.274 11.3937 26.5879 12.1214 26.9592C12.163 26.8886 11.6781 25.3012 11.6287 25.2366C11.5957 25.1935 11.5797 25.1453 11.5445 25.1052C11.422 24.9657 11.8498 25.1857 11.7529 25.0249C11.6633 24.8762 11.7529 25.0249 10.9224 24.1834C10.8429 24.0269 12.0245 24.9094 11.9504 24.7487C11.7821 24.384 13.3743 26.1137 12.0772 24.6371C11.7861 24.5376 9.42493 20.8602 8.67293 22.0853C8.33035 22.6435 8.61342 23.6006 8.66729 23.7836ZM8.66729 23.7836C8.38749 23.4649 8.78796 24.1936 8.66729 23.7836Z" stroke="black" stroke-linecap="round"/>
<path d="M13.0431 33.4535C12.4804 33.2784 13.5652 33.9951 13.7938 34.1435C13.8529 34.1813 13.8441 34.1762 13.7938 34.1435C13.7744 34.1311 13.7477 34.1141 13.7128 34.0919C13.1913 33.7608 10.615 32.6849 9.45814 31.0348L9.45759 31.0335C9.38765 30.8656 9.03015 30.0074 9.30193 29.4182C9.90008 28.1215 12.4941 31.2082 12.7802 31.2522C14.1534 32.4307 12.4756 31.0629 12.6702 31.3805C12.756 31.5204 11.549 30.8869 11.6394 31.0219C12.5089 31.6776 12.4096 31.5518 12.5089 31.6776C12.6162 31.8137 12.1887 31.679 12.3184 31.7904C12.3557 31.8224 12.3754 31.8654 12.4109 31.9007C12.464 31.9535 13.0759 33.3792 13.0431 33.4535Z" fill="black"/>
<path d="M9.45814 31.0348C10.615 32.6849 13.1913 33.7608 13.7128 34.0919C14.339 34.4895 12.3161 33.2272 13.0431 33.4535C13.0759 33.3792 12.464 31.9535 12.4109 31.9007C12.3754 31.8654 12.3557 31.8224 12.3184 31.7904C12.1887 31.679 12.6162 31.8137 12.5089 31.6776C12.4096 31.5518 12.5089 31.6776 11.6394 31.0219C11.549 30.8869 12.756 31.5204 12.6702 31.3805C12.4756 31.0629 14.1534 32.4307 12.7802 31.2522C12.4941 31.2082 9.90008 28.1215 9.30193 29.4182C9.02944 30.009 9.38953 30.8701 9.45814 31.0348ZM9.45814 31.0348C9.16188 30.7804 9.61183 31.4038 9.45814 31.0348Z" stroke="black" stroke-linecap="round"/>
<path d="M15.4071 39.7743C14.8409 39.7267 15.9997 40.1849 16.2426 40.2787C16.3052 40.3023 16.2959 40.2992 16.2426 40.2787C16.222 40.2709 16.1936 40.2602 16.1563 40.2463C15.602 40.0391 12.9626 39.5567 11.5722 38.2127L11.5715 38.2116C11.4754 38.0645 10.9846 37.3127 11.1395 36.6847C11.4806 35.3027 14.4903 37.7239 14.7702 37.7044C16.2834 38.5461 14.4472 37.5874 14.6881 37.8522C14.7943 37.9688 13.535 37.6178 13.6447 37.7287C14.5869 38.1742 14.4703 38.074 14.5869 38.1742C14.7129 38.2824 14.2826 38.2447 14.4256 38.3242C14.4666 38.3471 14.493 38.3844 14.5329 38.4108C14.5927 38.4503 15.4252 39.6954 15.4071 39.7743Z" fill="black"/>
<path d="M11.5722 38.2127C12.9626 39.5567 15.602 40.0391 16.1563 40.2463C16.8218 40.495 14.6759 39.7129 15.4071 39.7743C15.4252 39.6954 14.5927 38.4503 14.5329 38.4108C14.493 38.3844 14.4666 38.3471 14.4256 38.3242C14.2826 38.2447 14.7129 38.2824 14.5869 38.1742C14.4703 38.074 14.5869 38.1742 13.6447 37.7287C13.535 37.6178 14.7943 37.9688 14.6881 37.8522C14.4472 37.5874 16.2834 38.5461 14.7702 37.7044C14.4903 37.7239 11.4806 35.3027 11.1395 36.6847C10.9842 37.3143 11.478 38.0684 11.5722 38.2127ZM11.5722 38.2127C11.2457 38.031 11.7833 38.5359 11.5722 38.2127Z" stroke="black" stroke-linecap="round"/>
<path d="M18.9184 44.5503C18.3851 44.7269 19.6142 44.6978 19.871 44.6896C19.9369 44.687 19.9273 44.6878 19.871 44.6896C19.8493 44.6904 19.8193 44.6917 19.7801 44.6933C19.1968 44.7183 16.6112 45.3015 14.8335 44.605L14.8324 44.6042C14.6889 44.5061 13.9556 44.0048 13.857 43.3662C13.6402 41.9607 17.3022 43.0189 17.5494 42.892C19.2473 43.0781 17.2109 42.91 17.5311 43.06C17.6722 43.1261 16.3925 43.293 16.5346 43.3525C17.5618 43.396 17.4175 43.3491 17.5618 43.396C17.7177 43.4466 17.3118 43.5794 17.4722 43.597C17.5183 43.602 17.5565 43.6261 17.6029 43.6349C17.6724 43.6481 18.9048 44.4706 18.9184 44.5503Z" fill="black"/>
<path d="M14.8335 44.605C16.6112 45.3015 19.1968 44.7183 19.7801 44.6933C20.4805 44.6633 18.2296 44.7784 18.9184 44.5503C18.9048 44.4706 17.6724 43.6481 17.6029 43.6349C17.5565 43.6261 17.5183 43.602 17.4722 43.597C17.3118 43.5794 17.7177 43.4466 17.5618 43.396C17.4175 43.3491 17.5618 43.396 16.5346 43.3525C16.3925 43.293 17.6722 43.1261 17.5311 43.06C17.2109 42.91 19.2473 43.0781 17.5494 42.892C17.3022 43.0189 13.6402 41.9607 13.857 43.3662C13.9558 44.0065 14.6928 44.5088 14.8335 44.605ZM14.8335 44.605C14.4672 44.5647 15.1488 44.8205 14.8335 44.605Z" stroke="black" stroke-linecap="round"/>
</svg>
