<svg width="180" height="48" viewBox="0 0 180 48" fill="none" xmlns="http://www.w3.org/2000/svg">
<path d="M90.1875 17.4702H88.6934V11.4146H81.9434V17.4702H80.4492V4.62061H81.9434V10.0962H88.6934V4.62061H90.1875V17.4702ZM104.84 17.4702L103.258 13.3921H98.1079L96.5346 17.4702H95.0229L100.05 4.56787H101.395L106.387 17.4702H104.84ZM102.81 12.0649L101.307 8.01318C101.272 7.90771 101.213 7.73486 101.131 7.49463C101.055 7.25439 100.976 7.00537 100.894 6.74756C100.812 6.48975 100.745 6.28174 100.692 6.12354C100.633 6.36377 100.569 6.604 100.498 6.84424C100.434 7.07861 100.37 7.29834 100.305 7.50342C100.241 7.70264 100.185 7.87256 100.138 8.01318L98.6088 12.0649H102.81ZM121.277 17.4702H119.555L112.55 6.67725H112.479C112.497 6.96436 112.517 7.29248 112.541 7.66162C112.564 8.0249 112.582 8.41455 112.594 8.83057C112.611 9.24072 112.62 9.65967 112.62 10.0874V17.4702H111.231V4.62061H112.945L119.924 15.3784H119.985C119.974 15.1733 119.959 14.8833 119.941 14.5083C119.924 14.1274 119.906 13.7202 119.889 13.2866C119.877 12.8472 119.871 12.4399 119.871 12.0649V4.62061H121.277V17.4702ZM138.048 10.9224C138.048 12.3696 137.784 13.5796 137.257 14.5522C136.73 15.519 135.965 16.2485 134.963 16.7407C133.967 17.2271 132.757 17.4702 131.333 17.4702H127.844V4.62061H131.72C133.027 4.62061 134.152 4.86084 135.095 5.34131C136.038 5.81592 136.765 6.52197 137.275 7.45947C137.79 8.39111 138.048 9.54541 138.048 10.9224ZM136.475 10.9751C136.475 9.8208 136.282 8.86865 135.895 8.11865C135.514 7.36865 134.951 6.81201 134.207 6.44873C133.469 6.07959 132.564 5.89502 131.492 5.89502H129.338V16.187H131.158C132.927 16.187 134.254 15.7505 135.139 14.8774C136.03 14.0044 136.475 12.7036 136.475 10.9751ZM85.9424 25.7544C85.2334 25.7544 84.5947 25.8774 84.0264 26.1235C83.4639 26.3638 82.9834 26.7153 82.585 27.1782C82.1924 27.6353 81.8906 28.189 81.6797 28.8394C81.4688 29.4897 81.3633 30.2222 81.3633 31.0366C81.3633 32.1147 81.5303 33.0522 81.8643 33.8491C82.2041 34.6401 82.708 35.2524 83.376 35.686C84.0498 36.1196 84.8906 36.3364 85.8984 36.3364C86.4727 36.3364 87.0117 36.2896 87.5156 36.1958C88.0254 36.0962 88.5205 35.9731 89.001 35.8267V37.1274C88.5322 37.3032 88.04 37.4321 87.5244 37.5142C87.0088 37.6021 86.3965 37.646 85.6875 37.646C84.3809 37.646 83.2881 37.3765 82.4092 36.8374C81.5361 36.2925 80.8799 35.5249 80.4404 34.5347C80.0068 33.5444 79.79 32.3755 79.79 31.0278C79.79 30.0552 79.9248 29.1675 80.1943 28.3647C80.4697 27.5562 80.8682 26.8589 81.3896 26.2729C81.917 25.687 82.5615 25.2358 83.3232 24.9194C84.0908 24.5972 84.9697 24.436 85.96 24.436C86.6104 24.436 87.2373 24.5005 87.8408 24.6294C88.4443 24.7583 88.9893 24.9429 89.4756 25.1831L88.8779 26.4487C88.4678 26.2612 88.0166 26.1001 87.5244 25.9653C87.0381 25.8247 86.5107 25.7544 85.9424 25.7544ZM98.3188 24.6206C99.3735 24.6206 100.244 24.7524 100.929 25.0161C101.621 25.2739 102.136 25.6694 102.476 26.2026C102.816 26.7358 102.986 27.4155 102.986 28.2417C102.986 28.9214 102.863 29.4897 102.617 29.9468C102.371 30.3979 102.048 30.7642 101.65 31.0454C101.251 31.3267 100.827 31.5435 100.375 31.6958L103.9 37.4702H102.16L99.0131 32.1089H96.3412V37.4702H94.8471V24.6206H98.3188ZM98.2309 25.9126H96.3412V30.8433H98.3803C99.4291 30.8433 100.2 30.6294 100.692 30.2017C101.19 29.7739 101.439 29.144 101.439 28.312C101.439 27.439 101.175 26.8208 100.648 26.4575C100.126 26.0942 99.3207 25.9126 98.2309 25.9126ZM117.076 37.4702L115.494 33.3921H110.344L108.77 37.4702H107.259L112.286 24.5679H113.631L118.623 37.4702H117.076ZM115.046 32.0649L113.543 28.0132C113.508 27.9077 113.449 27.7349 113.367 27.4946C113.291 27.2544 113.212 27.0054 113.13 26.7476C113.048 26.4897 112.98 26.2817 112.928 26.1235C112.869 26.3638 112.805 26.604 112.734 26.8442C112.67 27.0786 112.605 27.2983 112.541 27.5034C112.476 27.7026 112.421 27.8726 112.374 28.0132L110.845 32.0649H115.046ZM124.961 37.4702H123.467V24.6206H130.621V25.939H124.961V30.6499H130.279V31.9595H124.961V37.4702ZM139.772 37.4702H138.269V25.939H134.226V24.6206H143.798V25.939H139.772V37.4702ZM155.954 37.4702H148.8V24.6206H155.954V25.939H150.294V30.0962H155.629V31.397H150.294V36.1519H155.954V37.4702ZM172.066 30.9224C172.066 32.3696 171.802 33.5796 171.275 34.5522C170.748 35.519 169.983 36.2485 168.981 36.7407C167.985 37.2271 166.775 37.4702 165.351 37.4702H161.862V24.6206H165.738C167.045 24.6206 168.17 24.8608 169.113 25.3413C170.056 25.8159 170.783 26.522 171.293 27.4595C171.808 28.3911 172.066 29.5454 172.066 30.9224ZM170.493 30.9751C170.493 29.8208 170.299 28.8687 169.913 28.1187C169.532 27.3687 168.969 26.812 168.225 26.4487C167.487 26.0796 166.582 25.895 165.509 25.895H163.356V36.187H165.175C166.945 36.187 168.272 35.7505 169.157 34.8774C170.048 34.0044 170.493 32.7036 170.493 30.9751Z" fill="black"/>
<path d="M33.3364 37.8002C32.8931 37.8002 32.5431 37.4269 32.2864 36.6802C32.0297 35.9335 31.9014 35.0935 31.9014 34.1602C31.9014 33.0402 32.0881 31.7102 32.4614 30.1702C32.8347 28.6302 33.3247 27.0085 33.9314 25.3052C34.5381 23.6019 35.2147 21.9335 35.9614 20.3002C36.7314 18.6669 37.5131 17.1852 38.3064 15.8552C39.0997 14.5252 39.8464 13.4635 40.5464 12.6702C41.2464 11.8769 41.8531 11.4802 42.3664 11.4802C42.7864 11.4802 43.0781 11.7369 43.2414 12.2502C43.4281 12.7402 43.5214 13.2185 43.5214 13.6852C43.5214 14.3385 43.3697 15.1319 43.0664 16.0652C42.7864 16.9985 42.3897 18.0019 41.8764 19.0752C41.3631 20.1252 40.7681 21.1635 40.0914 22.1902C39.4147 23.2169 38.6797 24.1619 37.8864 25.0252C37.0931 25.8652 36.2881 26.5302 35.4714 27.0202C35.1914 27.6969 34.9464 28.4552 34.7364 29.2952C34.5497 30.1352 34.4097 30.9635 34.3164 31.7802C34.2231 32.5735 34.1764 33.2852 34.1764 33.9152C34.1764 34.1719 34.1764 34.3935 34.1764 34.5802C34.1997 34.7669 34.2231 34.9419 34.2464 35.1052C34.5731 34.1485 34.9231 33.2269 35.2964 32.3402C35.6931 31.4302 36.1131 30.6019 36.5564 29.8552C36.9997 29.0852 37.4664 28.4202 37.9564 27.8602C38.4697 27.2769 39.0064 26.8335 39.5664 26.5302C40.1264 26.2035 40.7214 26.0402 41.3514 26.0402C42.0047 26.0402 42.5181 26.2035 42.8914 26.5302C43.2881 26.8335 43.5681 27.2302 43.7314 27.7202C43.9181 28.1869 44.0114 28.6769 44.0114 29.1902C44.0114 29.9135 43.8831 30.6135 43.6264 31.2902C43.3931 31.9669 43.1481 32.6202 42.8914 33.2502C42.6347 33.8802 42.5064 34.4869 42.5064 35.0702C42.5064 35.5369 42.5997 35.8752 42.7864 36.0852C42.9964 36.2952 43.2531 36.4002 43.5564 36.4002C44.0931 36.4002 44.6881 36.1435 45.3414 35.6302C46.0181 35.1169 46.6831 34.4402 47.3364 33.6002C47.9897 32.7369 48.5497 31.8035 49.0164 30.8002L49.4714 31.2202C48.9814 32.3635 48.3864 33.4019 47.6864 34.3352C46.9864 35.2452 46.2164 35.9685 45.3764 36.5052C44.5364 37.0419 43.6614 37.3102 42.7514 37.3102C41.9581 37.3102 41.3514 37.1002 40.9314 36.6802C40.5347 36.2602 40.3364 35.7352 40.3364 35.1052C40.3364 34.6152 40.4297 34.0669 40.6164 33.4602C40.8031 32.8535 40.9781 32.2352 41.1414 31.6052C41.3281 30.9752 41.4214 30.3802 41.4214 29.8202C41.4214 29.2135 41.2931 28.7819 41.0364 28.5252C40.7797 28.2685 40.4647 28.1402 40.0914 28.1402C39.5081 28.1402 38.9831 28.3735 38.5164 28.8402C38.0497 29.3069 37.6181 29.9135 37.2214 30.6602C36.8481 31.3835 36.4864 32.1535 36.1364 32.9702C35.8097 33.7869 35.4947 34.5685 35.1914 35.3152C34.8881 36.0385 34.5847 36.6335 34.2814 37.1002C33.9781 37.5669 33.6631 37.8002 33.3364 37.8002ZM35.9264 25.6552C36.5797 25.1419 37.2097 24.4885 37.8164 23.6952C38.4464 22.9019 39.0297 22.0619 39.5664 21.1752C40.1031 20.2652 40.5814 19.3785 41.0014 18.5152C41.4214 17.6519 41.7481 16.8702 41.9814 16.1702C42.2147 15.4702 42.3314 14.9452 42.3314 14.5952C42.3314 14.4785 42.3197 14.4085 42.2964 14.3852C42.2731 14.3385 42.2381 14.3152 42.1914 14.3152C42.0281 14.3152 41.6897 14.6419 41.1764 15.2952C40.6864 15.9252 40.1147 16.7769 39.4614 17.8502C38.8081 18.9235 38.1664 20.1369 37.5364 21.4902C36.9064 22.8435 36.3697 24.2319 35.9264 25.6552Z" fill="black"/>
<path d="M20.6911 45.4706C10.1905 35.9708 8.69141 11.9702 24.1907 0.470612" stroke="black"/>
<path d="M55.826 0.470658C70.6914 15.4702 70.1914 30.9702 58.691 44.4702" stroke="black"/>
<path d="M16.1908 8.47031C15.9572 7.77729 16.12 9.43033 16.1561 9.77547C16.1659 9.86394 16.1641 9.85111 16.1561 9.77547C16.1529 9.74627 16.1484 9.70604 16.1425 9.65339C16.0541 8.8705 15.1928 5.47021 15.6915 2.97021L15.6921 2.9686C15.774 2.76063 16.1924 1.69765 16.8165 1.47043C18.1901 0.970347 17.5371 6.06464 17.6901 6.37927C17.6901 8.69622 17.6354 5.92546 17.5211 6.3794C17.4708 6.5794 17.1655 4.87848 17.1219 5.0789C17.1905 6.47043 17.2213 6.269 17.1905 6.47043C17.1572 6.68813 16.9809 6.1605 16.9809 6.3794C16.9809 6.44228 16.9611 6.49736 16.9575 6.56122C16.952 6.65689 16.2686 8.4402 16.1908 8.47031Z" fill="black"/>
<path d="M15.6915 2.97021C15.1928 5.47021 16.0541 8.8705 16.1425 9.65339C16.2486 10.5934 15.8891 7.57528 16.1908 8.47031C16.2686 8.4402 16.952 6.65689 16.9575 6.56122C16.9611 6.49736 16.9809 6.44228 16.9809 6.3794C16.9809 6.1605 17.1572 6.68813 17.1905 6.47043C17.2213 6.269 17.1905 6.47043 17.1219 5.0789C17.1655 4.87848 17.4708 6.5794 17.5211 6.3794C17.6354 5.92546 17.6901 8.69622 17.6901 6.37927C17.5371 6.06464 18.1901 0.970347 16.8165 1.47043C16.1908 1.69824 15.7718 2.76621 15.6915 2.97021ZM15.6915 2.97021C15.6916 2.47021 15.5116 3.42722 15.6915 2.97021Z" stroke="black" stroke-linecap="round"/>
<path d="M64.0911 10.0108C64.3056 9.16966 64.1563 11.1749 64.123 11.5949C64.114 11.703 64.1157 11.6873 64.123 11.5949C64.126 11.5595 64.1301 11.5108 64.1355 11.4472C64.2166 10.4967 65.0076 6.36831 64.5496 3.33303L64.549 3.33107C64.4739 3.07857 64.0896 1.78799 63.5165 1.51212C62.2552 0.904965 62.8548 7.09001 62.7143 7.47201C62.7143 10.2851 62.7646 6.92103 62.8695 7.47217C62.9157 7.71499 63.1961 5.64988 63.2361 5.89321C63.1731 7.58269 63.1448 7.33814 63.1731 7.58269C63.2037 7.84701 63.3655 7.2064 63.3655 7.47217C63.3655 7.54851 63.2328 8.39268 63.2361 8.47021C63.2412 8.58637 64.0197 9.97421 64.0911 10.0108Z" fill="black"/>
<path d="M64.5496 3.33303C65.0076 6.36831 64.2166 10.4967 64.1355 11.4472C64.038 12.5884 64.3682 8.9241 64.0911 10.0108C64.0197 9.97421 63.2412 8.58637 63.2361 8.47021C63.2328 8.39268 63.3655 7.54851 63.3655 7.47217C63.3655 7.2064 63.2037 7.84701 63.1731 7.58269C63.1448 7.33814 63.1731 7.58269 63.2361 5.89321C63.1961 5.64988 62.9157 7.71499 62.8695 7.47217C62.7646 6.92103 62.7143 10.2851 62.7143 7.47201C62.8548 7.09001 62.2552 0.904965 63.5165 1.51212C64.0911 1.78871 64.4759 3.08534 64.5496 3.33303ZM64.5496 3.33303C64.5495 2.72597 64.7148 3.88789 64.5496 3.33303Z" stroke="black" stroke-linecap="round"/>
<path d="M66.8914 18.9636C66.6464 20.1174 67.314 16.344 66.8979 17.4194C66.8317 17.373 66.6408 15.4938 66.6509 15.3745C66.6576 15.2949 66.899 14.4491 66.909 14.3711C66.9435 14.0996 66.6997 14.7337 66.7037 14.4597C66.7074 14.2063 66.7037 14.4597 66.9858 12.7415C66.9777 12.4878 66.4312 14.5624 66.4169 14.3085C66.3845 13.7322 65.8974 17.163 66.263 14.2888C66.452 13.9162 66.6611 7.52101 67.8334 8.30054C68.3661 8.65473 68.5795 10.0219 68.6213 10.2893L68.6216 10.2914C68.6814 13.4505 67.0955 18.0027 66.8914 18.9636Z" fill="black"/>
<path d="M68.6216 10.2914C68.6814 13.4505 67.0955 18.0027 66.8914 18.9636C66.6464 20.1174 67.314 16.344 66.8979 17.4194C66.8317 17.373 66.6408 15.4938 66.6509 15.3745C66.6576 15.2949 66.899 14.4491 66.909 14.3711C66.9435 14.0996 66.6997 14.7337 66.7037 14.4597C66.7074 14.2063 66.7037 14.4597 66.9858 12.7415C66.9777 12.4878 66.4312 14.5624 66.4169 14.3085C66.3845 13.7322 65.8974 17.163 66.263 14.2888C66.452 13.9162 66.6611 7.52101 67.8334 8.30054C68.3675 8.65566 68.5806 10.029 68.6216 10.2914ZM68.6216 10.2914C68.7004 9.67114 68.7134 10.8792 68.6216 10.2914Z" stroke="black" stroke-linecap="round"/>
<path d="M66.8019 27.837C66.8019 27.837 67.987 26.5909 67.2884 27.1041C67.2458 27.0404 67.6723 25.6901 67.7186 25.6153C67.7496 25.5654 68.2248 25.1194 68.2579 25.0722C68.3733 24.9078 67.9627 25.2111 68.0524 25.03C68.1354 24.8625 68.0524 25.03 68.8376 24.021C68.9105 23.8475 67.7843 24.964 67.8519 24.7873C68.0053 24.386 66.5035 26.4384 67.725 24.698C68.0058 24.5424 70.2006 20.3714 70.9694 21.4716C71.3187 21.9715 71.0728 22.9907 71.0247 23.1901L71.0244 23.1917C70.0813 25.3326 66.8019 27.837 66.8019 27.837Z" fill="black"/>
<path d="M71.0244 23.1917C70.0813 25.3326 66.8019 27.837 66.8019 27.837C66.8019 27.837 67.987 26.5909 67.2884 27.1041C67.2458 27.0404 67.6723 25.6901 67.7186 25.6153C67.7496 25.5654 68.2248 25.1194 68.2579 25.0722C68.3733 24.9078 67.9627 25.2111 68.0524 25.03C68.1354 24.8625 68.0524 25.03 68.8376 24.021C68.9105 23.8475 67.7843 24.964 67.8519 24.7873C68.0053 24.386 66.5035 26.4384 67.725 24.698C68.0058 24.5424 70.2006 20.3714 70.9694 21.4716C71.3196 21.9728 71.0716 22.9961 71.0244 23.1917ZM71.0244 23.1917C71.2879 22.816 70.9187 23.6298 71.0244 23.1917Z" stroke="black" stroke-linecap="round"/>
<path d="M70.7892 16.6902C69.8461 18.8311 67.0532 20.6026 67.0532 20.6026C67.0106 20.5389 67.4372 19.1886 67.4835 19.1138C67.5144 19.0639 67.9896 18.6179 68.0228 18.5707C68.1382 18.4063 67.7275 18.7096 67.8173 18.5285C67.9003 18.361 67.8172 18.5285 68.6024 17.5195C68.6753 17.346 67.5491 18.4625 67.6167 18.2857C67.7702 17.8845 66.2684 19.9369 67.4898 18.1965C67.7707 18.0409 69.9654 13.8699 70.7342 14.9701C71.0835 15.47 70.8377 16.4892 70.7896 16.6886L70.7892 16.6902Z" fill="black"/>
<path d="M70.7892 16.6902C69.8461 18.8311 67.0532 20.6026 67.0532 20.6026C67.0106 20.5389 67.4372 19.1886 67.4835 19.1138C67.5144 19.0639 67.9896 18.6179 68.0228 18.5707C68.1382 18.4063 67.7275 18.7096 67.8173 18.5285C67.9003 18.361 67.8172 18.5285 68.6024 17.5195C68.6753 17.346 67.5491 18.4625 67.6167 18.2857C67.7702 17.8845 66.2684 19.9369 67.4898 18.1965C67.7707 18.0409 69.9654 13.8699 70.7342 14.9701C71.0845 15.4713 70.8364 16.4946 70.7892 16.6902ZM70.7892 16.6902C71.0527 16.3145 70.6835 17.1283 70.7892 16.6902Z" stroke="black" stroke-linecap="round"/>
<path d="M65.5922 34.0719C66.4588 33.5894 64.6922 34.9703 64.6922 34.9703C64.6922 34.9703 68.5705 32.8337 70.1149 30.6199L70.1157 30.6183C70.2178 30.4081 70.7397 29.3336 70.5021 28.7587C69.9978 27.5386 67.2627 31.4027 66.7679 31.8043C66.7527 31.8144 66.7377 31.8243 66.7229 31.834C66.7228 31.8341 66.7226 31.8341 66.7225 31.8342C66.7224 31.8342 66.7223 31.8343 66.7222 31.8344C66.4963 31.9831 66.3273 32.0857 66.3699 32.0186C66.6348 31.6013 64.9895 33.5872 66.7222 31.8344C66.7224 31.8343 66.7227 31.8341 66.7229 31.834C66.7348 31.829 66.7498 31.8189 66.7679 31.8043C67.1575 31.5463 67.6776 31.1824 67.6034 31.2922C66.5177 32.3009 66.6482 32.1286 66.5177 32.3009C66.3766 32.4871 66.8864 32.2016 66.7226 32.3673C66.6756 32.4149 66.0611 32.8477 66.0157 32.8984C65.9477 32.9743 65.564 33.9989 65.5922 34.0719Z" fill="black"/>
<path d="M70.1149 30.6199C68.5705 32.8337 64.6922 34.9703 64.6922 34.9703C64.6922 34.9703 66.4588 33.5894 65.5922 34.0719C65.564 33.9989 65.9477 32.9743 66.0157 32.8984C66.0611 32.8477 66.6756 32.4149 66.7226 32.3673C66.8864 32.2016 66.3766 32.4871 66.5177 32.3009C66.6482 32.1286 66.5177 32.3009 67.6034 31.2922C67.7249 31.1124 66.2531 32.2024 66.3699 32.0186C66.6348 31.6013 64.9893 33.5874 66.7225 31.8342C67.0578 31.6948 69.9792 27.4936 70.5021 28.7587C70.7404 29.3351 70.2151 30.4137 70.1149 30.6199ZM70.1149 30.6199C70.4889 30.2415 69.8906 31.0819 70.1149 30.6199Z" stroke="black" stroke-linecap="round"/>
<path d="M61.0995 41.379C61.069 41.3887 61.0366 41.3991 61.002 41.4104C61.03 41.4104 61.0628 41.3993 61.0995 41.379C61.9876 41.0969 61.1914 41.4702 61.1914 41.4702C61.1914 41.4702 65.0021 40.3481 67.2441 38.3635L67.2454 38.3619C67.4118 38.1656 68.2627 37.1623 68.1792 36.5348C67.9954 35.1536 63.6676 38.7935 63.2783 38.8766C60.9711 40.3589 63.6737 38.8947 63.2783 39.2733C63.107 39.3684 63.1104 39.3656 63.0145 39.4446C62.8143 39.6096 63.4272 39.4082 63.2092 39.5483C63.1466 39.5885 62.3824 39.9216 62.3206 39.9653C62.2364 40.0249 61.4711 41.1734 61.0995 41.379Z" fill="black"/>
<path d="M67.2441 38.3635C65.0021 40.3481 61.1914 41.4702 61.1914 41.4702C61.1914 41.4702 62.0431 41.0709 61.002 41.4104C61.3137 41.4104 62.2281 40.0307 62.3206 39.9653C62.3824 39.9216 63.1466 39.5885 63.2092 39.5483C63.4272 39.4082 62.8143 39.6096 63.0145 39.4446C63.1998 39.2919 63.0145 39.4446 64.4343 38.6074C64.6122 38.4455 63.1042 39.4402 63.2783 39.2733C63.6737 38.8947 60.9711 40.3589 63.2783 38.8766C63.6676 38.7935 67.9954 35.1536 68.1792 36.5348C68.2629 37.164 67.4074 38.1709 67.2441 38.3635ZM67.2441 38.3635C67.7419 38.0435 66.8783 38.7948 67.2441 38.3635Z" stroke="black" stroke-linecap="round"/>
<path d="M59.461 44.0969C59.332 44.0354 59.1914 43.9702 59.1914 43.9702C59.1914 43.9702 59.268 44.0189 59.405 44.0988C60.1113 44.5108 62.4221 45.7516 64.1009 45.4153L64.1023 45.4148C64.27 45.3443 65.1277 44.9841 65.3248 44.4164C65.7588 43.1668 61.8682 43.7899 61.6215 43.6423C61.621 43.6423 61.6205 43.6423 61.6201 43.6423C61.1297 43.43 60.5611 43.1896 60.312 43.0613C60.3069 42.9854 60.2995 42.9422 60.1914 42.9703C60.1648 42.9772 60.2133 43.0105 60.312 43.0613C60.3242 43.2413 60.3234 43.6054 61.6201 43.6423C62.1121 43.8553 62.5255 44.0401 62.4583 44.0549C61.3516 43.9606 61.5128 43.9368 61.3516 43.9606C61.1773 43.9863 61.593 44.1599 61.4186 44.155C61.3686 44.1536 60.8184 44.0052 60.7675 44.0072C60.6964 44.0098 59.7605 44.0835 59.461 44.0969Z" fill="black"/>
<path d="M64.1009 45.4153C62.0965 45.8168 59.1914 43.9702 59.1914 43.9702C59.1914 43.9702 60.1102 44.3959 59.405 44.0988C59.6155 44.0949 60.6911 44.01 60.7675 44.0072C60.8184 44.0052 61.3686 44.1536 61.4186 44.155C61.593 44.1599 61.1773 43.9863 61.3516 43.9606C61.5128 43.9368 61.3516 43.9606 62.4583 44.0549C62.6191 44.0194 60.0307 43.012 60.1914 42.9703C60.5559 42.8757 59.7758 43.5902 61.6215 43.6423C61.8682 43.7899 65.7588 43.1668 65.3248 44.4164C65.1271 44.9856 64.2655 45.3462 64.1009 45.4153ZM64.1009 45.4153C64.4992 45.4265 63.7322 45.5702 64.1009 45.4153Z" stroke="black" stroke-linecap="round"/>
<path d="M13.1671 15.6582C12.7599 15.0507 13.3506 16.6032 13.476 16.9268C13.5086 17.0096 13.5035 16.9977 13.476 16.9268C13.4652 16.8994 13.4504 16.8618 13.4308 16.8125C13.1402 16.0802 11.4172 13.0249 11.2428 10.4816L11.243 10.4799C11.2674 10.2577 11.3924 9.1222 11.9351 8.73925C13.1294 7.89643 13.8354 12.9837 14.0655 13.2471C14.6732 15.483 13.8937 12.8236 13.9025 13.2916C13.9064 13.4978 13.1656 11.9365 13.1761 12.1413C13.6073 13.4661 13.5843 13.2637 13.6073 13.4661C13.6323 13.685 13.3238 13.222 13.3812 13.4333C13.3977 13.4939 13.3931 13.5523 13.4063 13.6149C13.4261 13.7086 13.2343 15.6087 13.1671 15.6582Z" fill="black"/>
<path d="M11.2428 10.4816C11.4172 13.0249 13.1402 16.0802 13.4308 16.8125C13.7798 17.6918 12.6412 14.8736 13.1671 15.6582C13.2343 15.6087 13.4261 13.7086 13.4063 13.6149C13.3931 13.5523 13.3977 13.4939 13.3812 13.4333C13.3238 13.222 13.6323 13.685 13.6073 13.4661C13.5843 13.2637 13.6073 13.4661 13.1761 12.1413C13.1656 11.9365 13.9064 13.4978 13.9025 13.2916C13.8937 12.8236 14.6732 15.483 14.0655 13.2471C13.8354 12.9837 13.1294 7.89643 11.9351 8.73925C11.391 9.12321 11.2668 10.2637 11.2428 10.4816ZM11.2428 10.4816C11.1118 9.99907 11.1891 10.9698 11.2428 10.4816Z" stroke="black" stroke-linecap="round"/>
<path d="M12.0781 20.913C11.5921 20.4455 12.3962 21.7325 12.5661 22.0002C12.61 22.0686 12.6033 22.0589 12.5661 22.0002C12.5515 21.9776 12.5315 21.9465 12.5052 21.9059C12.1142 21.3013 9.98638 18.8835 9.44071 16.6125L9.44064 16.6109C9.43159 16.4044 9.38533 15.3488 9.85664 14.8902C10.8939 13.8807 12.3328 18.35 12.5956 18.5418C13.5173 20.4451 12.3659 18.1929 12.4436 18.6156C12.4778 18.8018 11.5264 17.5376 11.5669 17.7213C12.1822 18.8344 12.1299 18.6555 12.1822 18.8344C12.2389 19.0278 11.8704 18.6712 11.9574 18.851C11.9824 18.9026 11.9865 18.9565 12.0086 19.0106C12.0417 19.0916 12.1361 20.8543 12.0781 20.913Z" fill="black"/>
<path d="M9.44071 16.6125C9.98638 18.8835 12.1142 21.3013 12.5052 21.9059C12.9747 22.6318 11.4504 20.3093 12.0781 20.913C12.1361 20.8543 12.0417 19.0916 12.0086 19.0106C11.9865 18.9565 11.9824 18.9026 11.9574 18.851C11.8704 18.6712 12.2389 19.0278 12.1822 18.8344C12.1299 18.6555 12.1822 18.8344 11.5669 17.7213C11.5264 17.5376 12.4778 18.8018 12.4436 18.6156C12.3659 18.1929 13.5173 20.4451 12.5956 18.5418C12.3328 18.35 10.8939 13.8807 9.85664 14.8902C9.3841 15.35 9.43184 16.4099 9.44071 16.6125ZM9.44071 16.6125C9.24193 16.2017 9.4606 17.0663 9.44071 16.6125Z" stroke="black" stroke-linecap="round"/>
<path d="M12.1204 26.9591C11.5569 26.6716 12.6047 27.6176 12.825 27.8137C12.8819 27.8636 12.8733 27.8567 12.825 27.8137C12.8063 27.7972 12.7804 27.7745 12.7464 27.7449C12.2418 27.3043 9.69115 25.7058 8.66631 23.7835L8.66588 23.782C8.61097 23.5955 8.33027 22.6419 8.67195 22.0852C9.42395 20.86 11.7852 24.5375 12.0763 24.637C13.3733 26.1135 11.7811 24.3839 11.9494 24.7486C12.0235 24.9093 10.842 24.0268 10.9214 24.1833C11.752 25.0248 11.6624 24.8761 11.752 25.0248C11.8488 25.1855 11.421 24.9656 11.5436 25.1051C11.5788 25.1452 11.5947 25.1933 11.6277 25.2365C11.6771 25.3011 12.162 26.8885 12.1204 26.9591Z" fill="black"/>
<path d="M8.66631 23.7835C9.69115 25.7058 12.2418 27.3043 12.7464 27.7449C13.3524 28.2739 11.3927 26.5878 12.1204 26.9591C12.162 26.8885 11.6771 25.3011 11.6277 25.2365C11.5947 25.1933 11.5788 25.1452 11.5436 25.1051C11.421 24.9656 11.8488 25.1855 11.752 25.0248C11.6624 24.8761 11.752 25.0248 10.9214 24.1833C10.842 24.0268 12.0235 24.9093 11.9494 24.7486C11.7811 24.3839 13.3733 26.1135 12.0763 24.637C11.7852 24.5375 9.42395 20.86 8.67195 22.0852C8.32938 22.6434 8.61244 23.6005 8.66631 23.7835ZM8.66631 23.7835C8.38651 23.4648 8.78698 24.1935 8.66631 23.7835Z" stroke="black" stroke-linecap="round"/>
<path d="M13.0421 33.4536C12.4794 33.2785 13.5642 33.9952 13.7928 34.1436C13.852 34.1815 13.8431 34.1763 13.7928 34.1436C13.7735 34.1312 13.7468 34.1142 13.7118 34.092C13.1903 33.7609 10.6141 32.685 9.45716 31.035L9.45662 31.0336C9.38667 30.8657 9.02918 30.0075 9.30095 29.4184C9.8991 28.1217 12.4931 31.2084 12.7792 31.2523C14.1524 32.4308 12.4746 31.063 12.6693 31.3806C12.755 31.5205 11.5481 30.887 11.6385 31.0221C12.5079 31.6778 12.4086 31.5519 12.5079 31.6778C12.6152 31.8138 12.1877 31.6791 12.3175 31.7905C12.3547 31.8225 12.3745 31.8655 12.4099 31.9008C12.4631 31.9536 13.0749 33.3793 13.0421 33.4536Z" fill="black"/>
<path d="M9.45716 31.035C10.6141 32.685 13.1903 33.7609 13.7118 34.092C14.3381 34.4896 12.3151 33.2273 13.0421 33.4536C13.0749 33.3793 12.4631 31.9536 12.4099 31.9008C12.3745 31.8655 12.3547 31.8225 12.3175 31.7905C12.1877 31.6791 12.6152 31.8138 12.5079 31.6778C12.4086 31.5519 12.5079 31.6778 11.6385 31.0221C11.5481 30.887 12.755 31.5205 12.6693 31.3806C12.4746 31.063 14.1524 32.4308 12.7792 31.2523C12.4931 31.2084 9.8991 28.1217 9.30095 29.4184C9.02846 30.0091 9.38855 30.8702 9.45716 31.035ZM9.45716 31.035C9.16091 30.7805 9.61085 31.4039 9.45716 31.035Z" stroke="black" stroke-linecap="round"/>
<path d="M15.4061 39.7743C14.8399 39.7267 15.9987 40.1849 16.2417 40.2787C16.3042 40.3023 16.2949 40.2992 16.2417 40.2787C16.221 40.2709 16.1926 40.2602 16.1553 40.2463C15.601 40.0391 12.9616 39.5567 11.5713 38.2127L11.5705 38.2116C11.4745 38.0645 10.9836 37.3127 11.1386 36.6847C11.4796 35.3027 14.4893 37.7239 14.7692 37.7044C16.2824 38.5461 14.4462 37.5874 14.6871 37.8522C14.7933 37.9688 13.534 37.6178 13.6437 37.7287C14.5859 38.1742 14.4693 38.074 14.5859 38.1742C14.7119 38.2824 14.2816 38.2447 14.4246 38.3242C14.4656 38.3471 14.492 38.3844 14.5319 38.4108C14.5917 38.4503 15.4242 39.6954 15.4061 39.7743Z" fill="black"/>
<path d="M11.5713 38.2127C12.9616 39.5567 15.601 40.0391 16.1553 40.2463C16.8208 40.495 14.6749 39.7129 15.4061 39.7743C15.4242 39.6954 14.5917 38.4503 14.5319 38.4108C14.492 38.3844 14.4656 38.3471 14.4246 38.3242C14.2816 38.2447 14.7119 38.2824 14.5859 38.1742C14.4693 38.074 14.5859 38.1742 13.6437 37.7287C13.534 37.6178 14.7933 37.9688 14.6871 37.8522C14.4462 37.5874 16.2824 38.5461 14.7692 37.7044C14.4893 37.7239 11.4796 35.3027 11.1386 36.6847C10.9832 37.3143 11.477 38.0684 11.5713 38.2127ZM11.5713 38.2127C11.2448 38.031 11.7823 38.5359 11.5713 38.2127Z" stroke="black" stroke-linecap="round"/>
<path d="M18.9174 44.5503C18.3841 44.7269 19.6132 44.6978 19.8701 44.6896C19.936 44.687 19.9264 44.6878 19.8701 44.6896C19.8483 44.6904 19.8183 44.6917 19.7791 44.6933C19.1958 44.7183 16.6102 45.3015 14.8326 44.605L14.8314 44.6042C14.688 44.5061 13.9546 44.0048 13.8561 43.3662C13.6392 41.9607 17.3012 43.0189 17.5484 42.892C19.2463 43.0781 17.2099 42.91 17.5301 43.06C17.6712 43.1261 16.3915 43.293 16.5336 43.3525C17.5608 43.396 17.4166 43.3491 17.5608 43.396C17.7167 43.4466 17.3109 43.5794 17.4713 43.597C17.5173 43.602 17.5555 43.6261 17.6019 43.6349C17.6715 43.6481 18.9038 44.4706 18.9174 44.5503Z" fill="black"/>
<path d="M14.8326 44.605C16.6102 45.3015 19.1958 44.7183 19.7791 44.6933C20.4795 44.6633 18.2287 44.7784 18.9174 44.5503C18.9038 44.4706 17.6715 43.6481 17.6019 43.6349C17.5555 43.6261 17.5173 43.602 17.4713 43.597C17.3109 43.5794 17.7167 43.4466 17.5608 43.396C17.4166 43.3491 17.5608 43.396 16.5336 43.3525C16.3915 43.293 17.6712 43.1261 17.5301 43.06C17.2099 42.91 19.2463 43.0781 17.5484 42.892C17.3012 43.0189 13.6392 41.9607 13.8561 43.3662C13.9548 44.0065 14.6918 44.5088 14.8326 44.605ZM14.8326 44.605C14.4662 44.5647 15.1479 44.8205 14.8326 44.605Z" stroke="black" stroke-linecap="round"/>
</svg>
