<svg width="123" height="52" viewBox="0 0 123 52" fill="none" xmlns="http://www.w3.org/2000/svg">
<path d="M11.3468 44.1899C9.99823 44.3034 8.68822 44.1794 7.41679 43.8181C6.16861 43.4548 5.12077 42.8287 4.27328 41.94C3.4258 41.0512 2.9424 39.8977 2.82308 38.4794C2.71745 37.2238 2.91431 36.2238 3.41366 35.4793C3.91106 34.7116 4.56654 34.153 5.38011 33.8036C6.19368 33.4541 6.99573 33.2462 7.78628 33.1797C7.10874 34.0328 6.60755 34.8945 6.28269 35.7648C5.98109 36.6331 5.86257 37.451 5.92711 38.2183C5.99362 39.0088 6.25385 39.7362 6.7078 40.4005C7.18304 41.0396 7.84517 41.5341 8.69417 41.8842C9.54513 42.2575 10.5751 42.3933 11.7842 42.2916C12.8305 42.2036 13.8273 41.9441 14.7745 41.5132C15.7449 41.0803 16.5147 40.4887 17.0838 39.7383C17.6762 38.986 17.9283 38.0867 17.8403 37.0404C17.7601 36.0871 17.4126 35.2968 16.7979 34.6695C16.2044 34.0169 15.4551 33.4594 14.5498 32.997C13.6425 32.5114 12.6917 32.0645 11.6974 31.6564C10.701 31.2251 9.74826 30.755 8.83906 30.2461C7.92987 29.7372 7.16398 29.1225 6.5414 28.4022C5.94208 27.6799 5.59742 26.784 5.50745 25.7144C5.42725 24.7611 5.57467 23.7301 5.94972 22.6215C6.34606 21.4876 6.94591 20.4068 7.74926 19.3792C8.55261 18.3516 9.55761 17.4943 10.7643 16.8074C11.969 16.0972 13.3386 15.6776 14.8732 15.5485C16.4775 15.4135 17.6336 15.6558 18.3413 16.2753C19.0491 16.8948 19.449 17.751 19.5409 18.8438C19.6133 19.7041 19.5394 20.6352 19.3193 21.6372C19.0992 22.6392 18.8054 23.6006 18.4379 24.5213C18.0937 25.44 17.7504 26.2299 17.408 26.8909C16.8867 26.8177 16.4864 26.6524 16.2072 26.3949C15.926 26.1141 15.7648 25.7296 15.7237 25.2413C15.6827 24.7531 15.7297 24.1988 15.8649 23.5786C16.0233 22.9565 16.203 22.3092 16.404 21.6366C16.6282 20.9621 16.8079 20.3148 16.9431 19.6946C17.0995 19.0492 17.1582 18.494 17.1191 18.029C17.0838 17.6104 16.9286 17.2957 16.6533 17.0847C16.4012 16.8717 15.9031 16.7966 15.1591 16.8592C14.043 16.953 13.0405 17.2832 12.1515 17.8498C11.2626 18.4163 10.5006 19.1009 9.86567 19.9036C9.25398 20.7044 8.79733 21.5389 8.49573 22.4073C8.19217 23.2524 8.06875 24.012 8.12548 24.6863C8.19589 25.5234 8.52392 26.2217 9.10955 26.7812C9.69323 27.3175 10.4241 27.7946 11.3023 28.2124C12.2036 28.6283 13.1399 29.0413 14.111 29.4513C15.1054 29.8594 16.0465 30.3305 16.9344 30.8646C17.8456 31.3968 18.6037 32.0589 19.2089 32.851C19.8141 33.643 20.1676 34.6436 20.2693 35.8526C20.371 37.0617 20.182 38.1547 19.7022 39.1317C19.2456 40.1067 18.5788 40.9473 17.7015 41.6533C16.8262 42.3826 15.8326 42.9579 14.7207 43.3793C13.634 43.8219 12.5094 44.0921 11.3468 44.1899ZM25.4924 40.9979C24.7019 41.0644 24.0205 40.7588 23.4483 40.081C22.8975 39.378 22.5819 38.5499 22.5017 37.5966C22.447 36.9456 22.4871 36.1695 22.622 35.2683C22.7569 34.3672 22.9519 33.4844 23.207 32.62C23.4854 31.7536 23.7755 31.0267 24.0773 30.4393C24.4024 29.85 24.716 29.5426 25.0183 29.5172C25.1811 29.5035 25.433 29.576 25.7742 29.7346C26.1367 29.868 26.4565 30.0519 26.7338 30.2861C26.5093 30.6797 26.2434 31.2757 25.9359 32.0743C25.6517 32.8709 25.4072 33.7228 25.2025 34.6298C24.9979 35.5368 24.9258 36.3507 24.9865 37.0715C24.9943 37.1645 25.0245 37.3844 25.0771 37.7312C25.1529 38.0761 25.2733 38.3938 25.4383 38.6843C25.6032 38.9748 25.86 39.1054 26.2088 39.0761C26.6041 39.0428 27.005 38.7983 27.4116 38.3427C27.8394 37.8618 28.2575 37.2646 28.6658 36.5512C29.0954 35.8126 29.4978 35.0294 29.8731 34.2017C30.2716 33.3721 30.614 32.5706 30.9001 31.7972C31.2096 31.0218 31.459 30.3686 31.6485 29.8375C31.8597 29.8432 32.132 29.8788 32.4653 29.9444C32.8219 30.0081 33.135 30.1106 33.4044 30.2518C33.6719 30.3698 33.8174 30.5683 33.8409 30.8473C33.8467 30.9171 33.7549 31.2175 33.5654 31.7486C33.3973 32.2544 33.1914 32.8689 32.9478 33.5918C32.7275 34.3128 32.5323 35.0551 32.3624 35.8187C32.2138 36.5571 32.1629 37.2053 32.2099 37.7634C32.2373 38.0889 32.3199 38.3746 32.4576 38.6206C32.6167 38.8414 32.8822 38.9361 33.2543 38.9048C33.7425 38.8638 34.3052 38.594 34.9424 38.0955C35.5795 37.597 36.2232 36.8989 36.8736 36.0012C37.524 35.1035 38.0793 34.0499 38.5395 32.8404L39.0978 33.215C38.6919 34.5135 38.1242 35.697 37.3945 36.7652C36.6648 37.8335 35.8584 38.6858 34.9753 39.322C34.0941 39.9816 33.2118 40.3485 32.3282 40.4228C31.654 40.4795 31.1287 40.3598 30.7526 40.0636C30.4016 39.7888 30.1475 39.4121 29.9902 38.9336C29.8309 38.4318 29.7181 37.9262 29.6518 37.4166C29.642 37.3003 29.6323 37.1841 29.6225 37.0678C29.6107 36.9283 29.601 36.8121 29.5931 36.7191C29.2507 37.3801 28.8724 38.0324 28.4582 38.6761C28.0421 39.2965 27.5833 39.8268 27.0817 40.2671C26.6035 40.7054 26.0737 40.949 25.4924 40.9979ZM49.9607 38.5882C49.0539 38.6645 48.3368 38.4907 47.8095 38.0667C47.3073 37.6641 47.0268 37.114 46.9681 36.4165C46.929 35.9514 46.9693 35.4563 47.0891 34.9311C47.2068 34.3826 47.3246 33.8342 47.4424 33.2857C47.5601 32.7372 47.5985 32.2188 47.5574 31.7306C47.5144 31.219 47.3572 30.881 47.0857 30.7165C46.8356 30.5268 46.5478 30.4457 46.2223 30.4731C45.5248 30.5317 44.8284 30.883 44.1333 31.5269C43.4594 32.1456 42.8099 32.9144 42.1848 33.8334C41.5829 34.7504 41.0188 35.6993 40.4925 36.6802C39.9662 37.6611 39.5134 38.5422 39.1343 39.3234C38.6925 39.3606 38.2671 39.3144 37.8582 39.1849C37.4512 39.0786 37.0925 38.8512 36.7822 38.5027C36.7957 38.3845 36.9058 38.024 37.1127 37.4212C37.2943 36.7971 37.5021 36.0654 37.7359 35.2262C37.9677 34.3637 38.1618 33.4693 38.318 32.543C38.4742 31.6166 38.521 30.7814 38.4584 30.0374C38.6055 29.8377 38.834 29.6311 39.1439 29.4177C39.477 29.2024 39.8296 29.0791 40.2016 29.0478C41.0154 28.9793 41.4516 29.2938 41.5103 29.9914C41.5338 30.2704 41.5109 30.6938 41.4416 31.2616C41.3935 31.8042 41.3059 32.4321 41.1785 33.1453C41.7146 32.2806 42.3127 31.4576 42.9729 30.6762C43.633 29.8947 44.3282 29.2509 45.0583 28.7446C45.8097 28.213 46.5807 27.914 47.3712 27.8475C48.371 27.7634 49.1318 28.0389 49.6536 28.6741C50.1986 29.3073 50.5053 30.0308 50.5738 30.8446C50.6324 31.5421 50.5709 32.2029 50.3893 32.827C50.2076 33.4511 50.023 34.0403 49.8355 34.5947C49.6712 35.1471 49.6106 35.679 49.6537 36.1905C49.685 36.5626 49.7888 36.8231 49.9653 36.9722C50.163 37.096 50.3665 37.1492 50.5758 37.1315C51.1338 37.0846 51.6926 36.7683 52.2522 36.1827C52.8117 35.597 53.3246 34.8748 53.7909 34.0161C54.2786 33.1321 54.6964 32.2539 55.0445 31.3817L55.6785 31.8201C55.2861 33.0005 54.8161 34.0937 54.2685 35.0998C53.7422 36.0807 53.1198 36.8941 52.4015 37.5399C51.7044 38.1606 50.8908 38.51 49.9607 38.5882ZM58.8635 38.9281C57.701 39.0259 56.7388 38.861 55.9769 38.4334C55.2402 38.027 54.6905 37.4762 54.3276 36.7808C53.9627 36.0622 53.748 35.3192 53.6835 34.552C53.6267 33.8777 53.6757 33.3467 53.8304 32.959C53.9851 32.5714 54.1952 32.2844 54.4605 32.0982C54.7239 31.8887 54.9679 31.7277 55.1926 31.6151C55.4405 31.5006 55.6177 31.3803 55.7242 31.2543C56.2546 30.6008 56.7888 29.8534 57.3269 29.012C57.8862 28.1454 58.3457 27.2053 58.7053 26.1915L58.6759 25.8428C58.5977 24.9127 58.6941 24.249 58.965 23.8515C59.2573 23.4289 59.6127 23.1999 60.0312 23.1647C60.3102 23.1413 60.5137 23.1944 60.6417 23.3241C60.793 23.4519 60.888 23.6078 60.9269 23.7919C60.9387 23.9314 60.9175 24.0971 60.8634 24.2889C60.8325 24.4789 60.8308 24.7366 60.8582 25.0621C60.9169 25.7596 61.1471 26.5481 61.5489 27.4275C61.972 28.2817 62.3884 29.195 62.798 30.1675C63.2309 31.1379 63.4913 32.1463 63.5793 33.1926C63.6028 33.4716 63.6127 33.7284 63.609 33.9628C63.6053 34.1973 63.589 34.4211 63.5601 34.6343C64.2653 34.3876 64.9412 33.9327 65.5878 33.2695C66.2326 32.583 66.818 31.6089 67.344 30.347L67.789 30.6257C67.4587 31.9882 66.9093 33.1115 66.1407 33.9957C65.3701 34.8567 64.4347 35.4271 63.3342 35.707C63.0424 36.6916 62.4859 37.4526 61.6648 37.99C60.8668 38.5254 59.9331 38.8381 58.8635 38.9281ZM58.4903 37.4141C58.9553 37.375 59.3757 37.2225 59.7514 36.9567C60.1271 36.691 60.4126 36.3274 60.608 35.8661C59.6371 35.737 58.7455 35.4374 57.9332 34.9672C57.1209 34.4969 56.4821 34.0004 56.0166 33.4776C55.697 33.5747 55.5606 33.9023 55.6075 34.4603C55.6721 35.2276 55.9536 35.9298 56.4521 36.567C56.9506 37.2041 57.63 37.4864 58.4903 37.4141ZM60.799 34.7963C60.8318 34.6297 60.8394 34.4417 60.8218 34.2324C60.8255 33.998 60.8224 33.8226 60.8127 33.7063C60.7014 32.662 60.4748 31.639 60.133 30.6375C59.7912 29.636 59.4474 28.6112 59.1017 27.5631C58.7438 28.3191 58.321 29.1391 57.8334 30.0231C57.3458 30.9071 56.8794 31.6254 56.4341 32.178C56.859 32.7745 57.4552 33.3214 58.223 33.8188C58.9907 34.3162 59.8494 34.6421 60.799 34.7963ZM68.5765 37.6544C68.0649 37.6974 67.6597 37.3335 67.3606 36.5625C67.0849 35.7895 66.903 34.8799 66.815 33.8336C66.725 32.7641 66.7908 31.4589 67.0124 29.9183C67.2573 28.3757 67.6116 26.7419 68.0753 25.0169C68.5623 23.29 69.1103 21.5931 69.7193 19.9262C70.3517 18.2573 71.0083 16.7386 71.6893 15.37C72.3916 13.9762 73.0699 12.8538 73.7242 12.0026C74.4017 11.1494 75.0195 10.6994 75.5775 10.6525C76.0658 10.6114 76.4603 10.8475 76.7611 11.3607C77.0618 11.874 77.2367 12.4213 77.2856 13.0025C77.3384 13.6303 77.2528 14.422 77.0287 15.3774C76.826 16.3077 76.5129 17.3175 76.0894 18.4068C75.6659 19.4962 75.1484 20.5817 74.5369 21.6634C73.9467 22.72 73.28 23.701 72.5366 24.6065C71.8165 25.51 71.0478 26.2538 70.2305 26.8377C69.9948 27.6536 69.8132 28.4182 69.6859 29.1314C69.5799 29.8194 69.5174 30.4686 69.4985 31.079C69.4796 31.6894 69.4946 32.2852 69.5435 32.8665C69.5533 32.9827 69.564 33.1106 69.5758 33.2501C69.6088 33.3644 69.6302 33.4797 69.64 33.596C69.7213 33.4486 69.8421 33.0755 70.0024 32.4766C70.1628 31.8778 70.3851 31.18 70.6693 30.3834C70.9748 29.5615 71.3637 28.7561 71.8358 27.9671C72.3061 27.1548 72.881 26.4742 73.5608 25.9253C74.2385 25.3531 75.0424 25.0279 75.9725 24.9497C76.763 24.8832 77.3948 25.0173 77.8679 25.3522C78.339 25.6638 78.69 26.0792 78.921 26.5983C79.1501 27.0942 79.2871 27.6095 79.3321 28.1443C79.3947 28.8883 79.3255 29.5966 79.1245 30.2692C78.9467 30.9398 78.7544 31.5765 78.5476 32.1793C78.362 32.7568 78.2907 33.3014 78.3338 33.8129C78.369 34.2314 78.4864 34.5143 78.6861 34.6614C78.8858 34.8085 79.1136 34.8713 79.3693 34.8498C79.8809 34.8067 80.4523 34.5011 81.0835 33.9328C81.738 33.3626 82.3672 32.6306 82.9711 31.7369C83.5962 30.8179 84.1099 29.8263 84.5121 28.7622L85.12 29.3082C84.6831 30.5157 84.1452 31.6381 83.5066 32.6753C82.868 33.7125 82.143 34.5579 81.3316 35.2115C80.5202 35.8652 79.6146 36.2341 78.6148 36.3182C77.7312 36.3925 77.0374 36.2167 76.5332 35.7908C76.0291 35.3649 75.7477 34.8032 75.689 34.1057C75.6479 33.6174 75.6843 33.0758 75.7982 32.4808C75.9333 31.8606 76.0569 31.2414 76.1688 30.6232C76.2807 30.005 76.3161 29.4517 76.275 28.9634C76.2281 28.4054 76.0679 28.0325 75.7945 27.8448C75.5444 27.6551 75.245 27.5749 74.8962 27.6042C74.3149 27.6531 73.8113 27.9297 73.3854 28.4338C72.9576 28.9147 72.5879 29.5312 72.2766 30.2833C71.9652 31.0354 71.681 31.832 71.4239 32.6732C71.1649 33.4911 70.9029 34.2741 70.6381 35.0223C70.3732 35.7705 70.0733 36.3811 69.7385 36.8542C69.4288 37.3485 69.0415 37.6153 68.5765 37.6544ZM70.7752 24.5439C71.3347 23.9583 71.8622 23.27 72.3576 22.479C72.8531 21.688 73.3 20.8777 73.6986 20.048C74.1184 19.1932 74.4714 18.3791 74.7575 17.6057C75.065 16.8071 75.2979 16.0967 75.4564 15.4746C75.6148 14.8525 75.6919 14.3776 75.6878 14.0502C75.6858 14.0269 75.6848 14.0153 75.6848 14.0153C75.6829 13.992 75.6809 13.9688 75.679 13.9455C75.5395 13.9573 75.2616 14.2734 74.8455 14.8938C74.4507 15.4889 73.9921 16.3002 73.4697 17.3277C72.9686 18.3299 72.4667 19.4609 71.9638 20.7208C71.4843 21.9788 71.0881 23.2532 70.7752 24.5439ZM86.9728 35.8258C85.9498 35.9119 85.1571 35.6742 84.5947 35.1127C84.0323 34.5512 83.7149 33.8403 83.6426 32.98C83.5976 32.4452 83.6338 31.7631 83.7514 30.9336C83.8689 30.1042 84.0533 29.234 84.3045 28.3231C84.577 27.3869 84.9009 26.505 85.2761 25.6773C85.6514 24.8496 86.0743 24.1701 86.5447 23.6388C87.0132 23.0842 87.5032 22.7854 88.0147 22.7424C88.2938 22.7189 88.5457 22.7914 88.7706 22.9598C88.9936 23.105 89.1187 23.3403 89.1461 23.6658C89.1716 23.9681 89.0237 24.4371 88.7025 25.073C88.4046 25.7068 88.0448 26.4396 87.623 27.2712C87.2245 28.1008 86.8754 28.9615 86.5758 29.8531C86.2974 30.7195 86.1905 31.5363 86.2551 32.3036C86.3176 33.0476 86.4876 33.5368 86.7649 33.771C87.0634 33.98 87.4685 34.063 87.98 34.02C88.7706 33.9535 89.5976 33.4859 90.4611 32.6171C91.3247 31.7483 92.1732 30.2837 93.0068 28.2232L93.5769 28.7372C92.9352 30.8518 92.0345 32.5316 90.8748 33.7765C89.7151 35.0214 88.4144 35.7045 86.9728 35.8258ZM89.7651 19.7501C89.3233 19.7873 88.9076 19.7169 88.518 19.5389C88.1496 19.3358 87.9459 19.0017 87.9068 18.5367C87.8598 17.9786 88.122 17.4765 88.6933 17.0304C89.2646 16.5843 89.8757 16.3338 90.5268 16.2791C90.9453 16.2439 91.3019 16.3075 91.5965 16.4701C91.9145 16.6307 92.0939 16.9551 92.135 17.4434C92.1761 17.9316 91.9488 18.4308 91.4532 18.9408C90.9555 19.4275 90.3928 19.6973 89.7651 19.7501ZM104.422 34.0067C103.515 34.083 102.798 33.9091 102.27 33.4852C101.768 33.0825 101.488 32.5324 101.429 31.8349C101.39 31.3699 101.43 30.8747 101.55 30.3495C101.668 29.8011 101.786 29.2526 101.903 28.7041C102.021 28.1556 102.059 27.6373 102.018 27.149C101.975 26.6375 101.818 26.2995 101.547 26.135C101.297 25.9453 101.009 25.8641 100.683 25.8915C99.9857 25.9502 99.2894 26.3015 98.5942 26.9453C97.9204 27.564 97.2709 28.3328 96.6457 29.2518C96.0438 30.1688 95.4797 31.1178 94.9534 32.0987C94.4271 33.0796 93.9744 33.9606 93.5952 34.7418C93.1534 34.779 92.7281 34.7328 92.3191 34.6033C91.9121 34.4971 91.5534 34.2697 91.2431 33.9211C91.2566 33.8029 91.3668 33.4424 91.5736 32.8396C91.7553 32.2155 91.963 31.4839 92.1968 30.6446C92.4287 29.7822 92.6227 28.8878 92.7789 27.9614C92.9352 27.035 92.982 26.1998 92.9194 25.4558C93.0665 25.2561 93.295 25.0496 93.6049 24.8362C93.938 24.6208 94.2905 24.4975 94.6626 24.4662C95.4764 24.3977 95.9126 24.7123 95.9713 25.4098C95.9947 25.6888 95.9718 26.1122 95.9025 26.68C95.8545 27.2226 95.7668 27.8505 95.6395 28.5637C96.1756 27.6991 96.7737 26.876 97.4338 26.0946C98.094 25.3132 98.7891 24.6693 99.5192 24.163C100.271 23.6315 101.042 23.3324 101.832 23.2659C102.832 23.1818 103.593 23.4574 104.115 24.0925C104.66 24.7257 104.966 25.4492 105.035 26.263C105.093 26.9606 105.032 27.6214 104.85 28.2455C104.669 28.8696 104.484 29.4588 104.296 30.0131C104.132 30.5655 104.072 31.0974 104.115 31.609C104.146 31.981 104.25 32.2415 104.426 32.3906C104.624 32.5145 104.827 32.5676 105.037 32.55C105.595 32.503 106.154 32.1867 106.713 31.6011C107.273 31.0155 107.786 30.2933 108.252 29.4345C108.739 28.5505 109.157 27.6724 109.505 26.8001L110.139 27.2385C109.747 28.4189 109.277 29.5122 108.729 30.5183C108.203 31.4992 107.581 32.3125 106.862 32.9584C106.165 33.579 105.352 33.9284 104.422 34.0067ZM113.269 34.1053C111.781 34.2305 110.596 33.9205 109.714 33.1751C108.857 32.4511 108.377 31.4845 108.275 30.2755C108.189 29.2524 108.354 28.1497 108.77 26.9674C109.207 25.7598 109.825 24.619 110.624 23.5449C111.422 22.4475 112.329 21.5399 113.346 20.8222C114.363 20.1044 115.406 19.7005 116.475 19.6106C117.08 19.5597 117.663 19.6745 118.225 19.9551C118.809 20.2104 119.14 20.8031 119.218 21.7331C119.292 22.6167 119.106 23.4636 118.659 24.2739C118.212 25.0842 117.584 25.8278 116.774 26.5048C115.965 27.1817 115.054 27.7618 114.041 28.245C113.049 28.7031 112.035 29.0343 110.998 29.2386C110.983 29.3336 110.968 29.4401 110.955 29.5583C110.963 29.6514 110.976 29.8141 110.996 30.0466C111.006 30.1629 111.035 30.3712 111.084 30.6715C111.153 30.9466 111.284 31.24 111.474 31.5519C111.664 31.8637 111.955 32.1202 112.346 32.3214C112.738 32.5226 113.259 32.5959 113.91 32.5411C114.887 32.4589 115.841 32.1094 116.772 31.4925C117.725 30.8503 118.594 30.0397 119.378 29.0605C120.185 28.0794 120.832 27.0063 121.32 25.8414L122.064 26.3407C121.554 27.7886 120.843 29.0778 119.931 30.2082C119.042 31.3366 118.018 32.2424 116.858 32.9254C115.721 33.6064 114.525 33.9997 113.269 34.1053ZM111.273 27.9159C111.872 27.7953 112.529 27.5293 113.243 27.1179C113.958 26.7066 114.63 26.2051 115.259 25.6136C115.912 25.0202 116.433 24.391 116.821 23.726C117.208 23.0378 117.375 22.3682 117.32 21.7172C117.298 21.4614 117.237 21.2909 117.136 21.2058C117.035 21.1206 116.88 21.0868 116.671 21.1044C116.136 21.1494 115.595 21.394 115.047 21.8381C114.497 22.259 113.969 22.8069 113.464 23.4816C112.957 24.1331 112.514 24.8494 112.135 25.6306C111.755 26.4118 111.468 27.1736 111.273 27.9159Z" fill="black"/>
<path d="M30.5037 18.9074L30.0058 18.9182L29.962 16.9001L27.7125 16.949L27.7563 18.9671L27.2584 18.9779L27.1654 14.6957L27.6634 14.6849L27.703 16.5096L29.9524 16.4608L29.9128 14.636L30.4107 14.6252L30.5037 18.9074ZM36.7648 18.7715L34.3805 18.8232L34.2876 14.541L36.6718 14.4893L36.6813 14.9286L34.795 14.9696L34.8251 16.355L36.603 16.3164L36.6124 16.7499L34.8345 16.7885L34.8689 18.3731L36.7552 18.3321L36.7648 18.7715ZM40.4131 18.6922L40.3201 14.41L40.8181 14.3992L40.9014 18.2362L42.8023 18.1949L42.812 18.6402L40.4131 18.6922ZM46.2465 18.5656L46.1535 14.2834L46.6515 14.2726L46.7348 18.1096L48.6357 18.0683L48.6454 18.5135L46.2465 18.5656ZM55.7472 16.2113C55.7544 16.5413 55.719 16.843 55.6409 17.1162C55.5628 17.3875 55.4428 17.6226 55.2811 17.8214C55.1213 18.0183 54.9205 18.1721 54.6787 18.2829C54.4369 18.3936 54.1549 18.4525 53.8327 18.4595C53.5008 18.4667 53.2096 18.4203 52.9594 18.3202C52.711 18.2201 52.5027 18.0742 52.3345 17.8825C52.1682 17.6907 52.0411 17.46 51.9532 17.1904C51.8672 16.9207 51.8206 16.6209 51.8135 16.2909C51.804 15.8535 51.8679 15.4682 52.0052 15.1351C52.1426 14.8019 52.3557 14.5404 52.6446 14.3505C52.9355 14.1606 53.3025 14.0608 53.7458 14.0511C54.1695 14.0419 54.5278 14.125 54.8208 14.3003C55.1157 14.4756 55.3409 14.7266 55.4965 15.0534C55.6539 15.3782 55.7375 15.7642 55.7472 16.2113ZM52.3379 16.2854C52.3458 16.6485 52.4043 16.9618 52.5136 17.2251C52.6229 17.4884 52.7855 17.69 53.0015 17.8299C53.2194 17.9697 53.4934 18.0361 53.8234 18.0289C54.1553 18.0217 54.4252 17.9436 54.6329 17.7945C54.8426 17.6454 54.9954 17.4369 55.0911 17.1692C55.1869 16.9014 55.2308 16.5859 55.223 16.2227C55.211 15.6701 55.0854 15.2411 54.8463 14.9357C54.6091 14.6282 54.2454 14.4798 53.7553 14.4905C53.4234 14.4977 53.1515 14.5749 52.9398 14.7221C52.7281 14.8693 52.5724 15.0759 52.4727 15.3418C52.3749 15.6057 52.33 15.9202 52.3379 16.2854ZM59.7884 17.0818L59.4691 17.0888L59.2672 13.9987L59.856 13.9859L59.7884 17.0818ZM59.295 17.9775C59.292 17.8408 59.3231 17.7434 59.3883 17.6854C59.4534 17.6254 59.5358 17.5943 59.6354 17.5921C59.733 17.59 59.8156 17.6175 59.8833 17.6746C59.9529 17.7298 59.9891 17.8257 59.9921 17.9624C59.995 18.0971 59.963 18.1965 59.896 18.2604C59.8309 18.3224 59.7496 18.3544 59.652 18.3566C59.5524 18.3587 59.4687 18.3303 59.401 18.2712C59.3333 18.2101 59.2979 18.1122 59.295 17.9775Z" fill="black"/>
</svg>
