<svg width="123" height="52" viewBox="0 0 123 52" fill="none" xmlns="http://www.w3.org/2000/svg">
<path d="M11.3468 44.1901C9.99823 44.3035 8.68822 44.1796 7.41679 43.8182C6.16861 43.4549 5.12077 42.8289 4.27328 41.9401C3.4258 41.0514 2.9424 39.8978 2.82308 38.4795C2.71745 37.2239 2.91431 36.2239 3.41366 35.4794C3.91106 34.7117 4.56654 34.1531 5.38011 33.8037C6.19368 33.4543 6.99573 33.2463 7.78628 33.1798C7.10874 34.0329 6.60755 34.8946 6.28269 35.7649C5.98109 36.6333 5.86257 37.4511 5.92711 38.2184C5.99362 39.0089 6.25385 39.7363 6.7078 40.4006C7.18304 41.0397 7.84517 41.5343 8.69417 41.8843C9.54513 42.2576 10.5751 42.3934 11.7842 42.2917C12.8305 42.2037 13.8273 41.9442 14.7745 41.5133C15.7449 41.0804 16.5147 40.4888 17.0838 39.7385C17.6762 38.9862 17.9283 38.0869 17.8403 37.0405C17.7601 36.0873 17.4126 35.2969 16.7979 34.6696C16.2044 34.017 15.4551 33.4596 14.5498 32.9972C13.6425 32.5115 12.6917 32.0646 11.6974 31.6566C10.701 31.2252 9.74826 30.7551 8.83906 30.2462C7.92987 29.7373 7.16398 29.1227 6.5414 28.4023C5.94208 27.68 5.59742 26.7841 5.50745 25.7145C5.42725 24.7612 5.57467 23.7303 5.94972 22.6216C6.34606 21.4877 6.94591 20.4069 7.74926 19.3793C8.55261 18.3517 9.55761 17.4944 10.7643 16.8075C11.969 16.0974 13.3386 15.6777 14.8732 15.5486C16.4775 15.4137 17.6336 15.6559 18.3413 16.2755C19.0491 16.895 19.449 17.7511 19.5409 18.8439C19.6133 19.7042 19.5394 20.6354 19.3193 21.6374C19.0992 22.6393 18.8054 23.6007 18.4379 24.5214C18.0937 25.4401 17.7504 26.23 17.408 26.8911C16.8867 26.8178 16.4864 26.6525 16.2072 26.395C15.926 26.1142 15.7648 25.7297 15.7237 25.2414C15.6827 24.7532 15.7297 24.1989 15.8649 23.5788C16.0233 22.9566 16.203 22.3093 16.404 21.6367C16.6282 20.9622 16.8079 20.3149 16.9431 19.6947C17.0995 19.0493 17.1582 18.4941 17.1191 18.0291C17.0838 17.6106 16.9286 17.2958 16.6533 17.0848C16.4012 16.8719 15.9031 16.7967 15.1591 16.8593C14.043 16.9532 13.0405 17.2834 12.1515 17.8499C11.2626 18.4164 10.5006 19.101 9.86567 19.9037C9.25398 20.7045 8.79733 21.5391 8.49573 22.4074C8.19217 23.2525 8.06875 24.0122 8.12548 24.6865C8.19589 25.5235 8.52392 26.2218 9.10955 26.7813C9.69323 27.3176 10.4241 27.7947 11.3023 28.2126C12.2036 28.6285 13.1399 29.0414 14.111 29.4515C15.1054 29.8595 16.0465 30.3306 16.9344 30.8648C17.8456 31.3969 18.6037 32.059 19.2089 32.8511C19.8141 33.6431 20.1676 34.6437 20.2693 35.8527C20.371 37.0618 20.182 38.1548 19.7022 39.1318C19.2456 40.1069 18.5788 40.9474 17.7015 41.6534C16.8262 42.3827 15.8326 42.958 14.7207 43.3794C13.634 43.822 12.5094 44.0923 11.3468 44.1901ZM25.4924 40.998C24.7019 41.0645 24.0205 40.7589 23.4483 40.0811C22.8975 39.3782 22.5819 38.55 22.5017 37.5967C22.447 36.9457 22.4871 36.1696 22.622 35.2685C22.7569 34.3673 22.9519 33.4845 23.207 32.6201C23.4854 31.7537 23.7755 31.0268 24.0773 30.4395C24.4024 29.8501 24.716 29.5428 25.0183 29.5173C25.1811 29.5036 25.433 29.5761 25.7742 29.7347C26.1367 29.8682 26.4565 30.052 26.7338 30.2862C26.5093 30.6798 26.2434 31.2758 25.9359 32.0744C25.6517 32.871 25.4072 33.7229 25.2025 34.6299C24.9979 35.5369 24.9258 36.3508 24.9865 37.0716C24.9943 37.1646 25.0245 37.3845 25.0771 37.7313C25.1529 38.0762 25.2733 38.3939 25.4383 38.6844C25.6032 38.9749 25.86 39.1055 26.2088 39.0762C26.6041 39.0429 27.005 38.7985 27.4116 38.3428C27.8394 37.8619 28.2575 37.2647 28.6658 36.5513C29.0954 35.8127 29.4978 35.0296 29.8731 34.2019C30.2716 33.3722 30.614 32.5707 30.9001 31.7973C31.2096 31.022 31.459 30.3687 31.6485 29.8377C31.8597 29.8433 32.132 29.8789 32.4653 29.9446C32.8219 30.0082 33.135 30.1107 33.4044 30.2519C33.6719 30.3699 33.8174 30.5684 33.8409 30.8474C33.8467 30.9172 33.7549 31.2176 33.5654 31.7487C33.3973 32.2546 33.1914 32.869 32.9478 33.592C32.7275 34.313 32.5323 35.0553 32.3624 35.8189C32.2138 36.5573 32.1629 37.2055 32.2099 37.7635C32.2373 38.089 32.3199 38.3748 32.4576 38.6207C32.6167 38.8415 32.8822 38.9363 33.2543 38.905C33.7425 38.8639 34.3052 38.5941 34.9424 38.0956C35.5795 37.5971 36.2232 36.899 36.8736 36.0013C37.524 35.1037 38.0793 34.0501 38.5395 32.8406L39.0978 33.2151C38.6919 34.5137 38.1242 35.6971 37.3945 36.7654C36.6648 37.8336 35.8584 38.6859 34.9753 39.3222C34.0941 39.9817 33.2118 40.3486 32.3282 40.4229C31.654 40.4797 31.1287 40.3599 30.7526 40.0638C30.4016 39.7889 30.1475 39.4122 29.9902 38.9337C29.8309 38.4319 29.7181 37.9263 29.6518 37.4167C29.642 37.3005 29.6323 37.1842 29.6225 37.068C29.6107 36.9284 29.601 36.8122 29.5931 36.7192C29.2507 37.3802 28.8724 38.0326 28.4582 38.6762C28.0421 39.2966 27.5833 39.8269 27.0817 40.2672C26.6035 40.7055 26.0737 40.9491 25.4924 40.998ZM49.9607 38.5884C49.0539 38.6646 48.3368 38.4908 47.8095 38.0669C47.3073 37.6642 47.0268 37.1141 46.9681 36.4166C46.929 35.9516 46.9693 35.4564 47.0891 34.9312C47.2068 34.3827 47.3246 33.8343 47.4424 33.2858C47.5601 32.7373 47.5985 32.219 47.5574 31.7307C47.5144 31.2192 47.3572 30.8812 47.0857 30.7167C46.8356 30.527 46.5478 30.4458 46.2223 30.4732C45.5248 30.5319 44.8284 30.8831 44.1333 31.527C43.4594 32.1457 42.8099 32.9145 42.1848 33.8335C41.5829 34.7505 41.0188 35.6995 40.4925 36.6804C39.9662 37.6613 39.5134 38.5423 39.1343 39.3235C38.6925 39.3607 38.2671 39.3145 37.8582 39.185C37.4512 39.0788 37.0925 38.8514 36.7822 38.5028C36.7957 38.3846 36.9058 38.0241 37.1127 37.4213C37.2943 36.7972 37.5021 36.0655 37.7359 35.2263C37.9677 34.3639 38.1618 33.4694 38.318 32.5431C38.4742 31.6167 38.521 30.7815 38.4584 30.0375C38.6055 29.8378 38.834 29.6312 39.1439 29.4178C39.477 29.2025 39.8296 29.0792 40.2016 29.0479C41.0154 28.9794 41.4516 29.294 41.5103 29.9915C41.5338 30.2705 41.5109 30.6939 41.4416 31.2617C41.3935 31.8043 41.3059 32.4322 41.1785 33.1454C41.7146 32.2808 42.3127 31.4577 42.9729 30.6763C43.633 29.8949 44.3282 29.251 45.0583 28.7447C45.8097 28.2131 46.5807 27.9141 47.3712 27.8476C48.371 27.7635 49.1318 28.039 49.6536 28.6742C50.1986 29.3074 50.5053 30.0309 50.5738 30.8447C50.6324 31.5422 50.5709 32.2031 50.3893 32.8272C50.2076 33.4512 50.023 34.0405 49.8355 34.5948C49.6712 35.1472 49.6106 35.6791 49.6537 36.1907C49.685 36.5627 49.7888 36.8232 49.9653 36.9723C50.163 37.0961 50.3665 37.1493 50.5758 37.1317C51.1338 37.0847 51.6926 36.7684 52.2522 36.1828C52.8117 35.5972 53.3246 34.875 53.7909 34.0162C54.2786 33.1322 54.6964 32.2541 55.0445 31.3818L55.6785 31.8202C55.2861 33.0006 54.8161 34.0938 54.2685 35.1C53.7422 36.0809 53.1198 36.8942 52.4015 37.5401C51.7044 38.1607 50.8908 38.5101 49.9607 38.5884ZM58.8635 38.9282C57.701 39.026 56.7388 38.8611 55.9769 38.4335C55.2402 38.0271 54.6905 37.4763 54.3276 36.7809C53.9627 36.0623 53.748 35.3194 53.6835 34.5521C53.6267 33.8778 53.6757 33.3468 53.8304 32.9591C53.9851 32.5715 54.1952 32.2845 54.4605 32.0983C54.7239 31.8888 54.9679 31.7278 55.1926 31.6152C55.4405 31.5007 55.6177 31.3804 55.7242 31.2544C56.2546 30.601 56.7888 29.8535 57.3269 29.0121C57.8862 28.1455 58.3457 27.2054 58.7053 26.1917L58.6759 25.8429C58.5977 24.9129 58.6941 24.2491 58.965 23.8517C59.2573 23.429 59.6127 23.2001 60.0312 23.1649C60.3102 23.1414 60.5137 23.1945 60.6417 23.3242C60.793 23.452 60.888 23.6079 60.9269 23.792C60.9387 23.9315 60.9175 24.0972 60.8634 24.2891C60.8325 24.479 60.8308 24.7367 60.8582 25.0622C60.9169 25.7598 61.1471 26.5482 61.5489 27.4276C61.972 28.2818 62.3884 29.1952 62.798 30.1676C63.2309 31.138 63.4913 32.1464 63.5793 33.1927C63.6028 33.4717 63.6127 33.7285 63.609 33.9629C63.6053 34.1974 63.589 34.4212 63.5601 34.6344C64.2653 34.3878 64.9412 33.9328 65.5878 33.2696C66.2326 32.5832 66.818 31.609 67.344 30.3471L67.789 30.6258C67.4587 31.9883 66.9093 33.1116 66.1407 33.9958C65.3701 34.8568 64.4347 35.4272 63.3342 35.7071C63.0424 36.6917 62.4859 37.4527 61.6648 37.9901C60.8668 38.5255 59.9331 38.8383 58.8635 38.9282ZM58.4903 37.4142C58.9553 37.3751 59.3757 37.2226 59.7514 36.9569C60.1271 36.6911 60.4126 36.3276 60.608 35.8662C59.6371 35.7372 58.7455 35.4375 57.9332 34.9673C57.1209 34.4971 56.4821 34.0005 56.0166 33.4777C55.697 33.5748 55.5606 33.9024 55.6075 34.4605C55.6721 35.2277 55.9536 35.93 56.4521 36.5671C56.9506 37.2042 57.63 37.4866 58.4903 37.4142ZM60.799 34.7964C60.8318 34.6298 60.8394 34.4418 60.8218 34.2325C60.8255 33.9981 60.8224 33.8227 60.8127 33.7065C60.7014 32.6621 60.4748 31.6392 60.133 30.6376C59.7912 29.6361 59.4474 28.6113 59.1017 27.5633C58.7438 28.3193 58.321 29.1393 57.8334 30.0232C57.3458 30.9072 56.8794 31.6255 56.4341 32.1781C56.859 32.7746 57.4552 33.3216 58.223 33.8189C58.9907 34.3163 59.8494 34.6422 60.799 34.7964ZM68.5765 37.6545C68.0649 37.6976 67.6597 37.3336 67.3606 36.5626C67.0849 35.7897 66.903 34.88 66.815 33.8337C66.725 32.7642 66.7908 31.4591 67.0124 29.9184C67.2573 28.3758 67.6116 26.742 68.0753 25.0171C68.5623 23.2902 69.1103 21.5932 69.7193 19.9263C70.3517 18.2574 71.0083 16.7387 71.6893 15.3701C72.3916 13.9764 73.0699 12.8539 73.7242 12.0027C74.4017 11.1496 75.0195 10.6995 75.5775 10.6526C76.0658 10.6115 76.4603 10.8476 76.7611 11.3609C77.0618 11.8741 77.2367 12.4214 77.2856 13.0027C77.3384 13.6305 77.2528 14.4221 77.0287 15.3776C76.826 16.3078 76.5129 17.3176 76.0894 18.407C75.6659 19.4963 75.1484 20.5818 74.5369 21.6636C73.9467 22.7201 73.28 23.7011 72.5366 24.6066C71.8165 25.5102 71.0478 26.2539 70.2305 26.8378C69.9948 27.6538 69.8132 28.4183 69.6859 29.1315C69.5799 29.8195 69.5174 30.4687 69.4985 31.0791C69.4796 31.6895 69.4946 32.2853 69.5435 32.8666C69.5533 32.9829 69.564 33.1107 69.5758 33.2502C69.6088 33.3645 69.6302 33.4798 69.64 33.5961C69.7213 33.4488 69.8421 33.0756 70.0024 32.4768C70.1628 31.8779 70.3851 31.1801 70.6693 30.3835C70.9748 29.5616 71.3637 28.7562 71.8358 27.9672C72.3061 27.1549 72.881 26.4743 73.5608 25.9254C74.2385 25.3532 75.0424 25.028 75.9725 24.9498C76.763 24.8833 77.3948 25.0175 77.8679 25.3523C78.339 25.6639 78.69 26.0793 78.921 26.5984C79.1501 27.0943 79.2871 27.6096 79.3321 28.1444C79.3947 28.8884 79.3255 29.5967 79.1245 30.2693C78.9467 30.9399 78.7544 31.5766 78.5476 32.1794C78.362 32.757 78.2907 33.3015 78.3338 33.813C78.369 34.2316 78.4864 34.5144 78.6861 34.6615C78.8858 34.8086 79.1136 34.8714 79.3693 34.8499C79.8809 34.8069 80.4523 34.5012 81.0835 33.933C81.738 33.3628 82.3672 32.6308 82.9711 31.737C83.5962 30.818 84.1099 29.8265 84.5121 28.7623L85.12 29.3083C84.6831 30.5159 84.1452 31.6382 83.5066 32.6754C82.868 33.7126 82.143 34.558 81.3316 35.2117C80.5202 35.8653 79.6146 36.2342 78.6148 36.3183C77.7312 36.3926 77.0374 36.2169 76.5332 35.7909C76.0291 35.365 75.7477 34.8033 75.689 34.1058C75.6479 33.6175 75.6843 33.0759 75.7982 32.4809C75.9333 31.8607 76.0569 31.2415 76.1688 30.6233C76.2807 30.0051 76.3161 29.4518 76.275 28.9636C76.2281 28.4055 76.0679 28.0326 75.7945 27.8449C75.5444 27.6552 75.245 27.575 74.8962 27.6044C74.3149 27.6533 73.8113 27.9298 73.3854 28.4339C72.9576 28.9148 72.5879 29.5313 72.2766 30.2834C71.9652 31.0355 71.681 31.8321 71.4239 32.6733C71.1649 33.4912 70.9029 34.2743 70.6381 35.0224C70.3732 35.7706 70.0733 36.3812 69.7385 36.8543C69.4288 37.3487 69.0415 37.6154 68.5765 37.6545ZM70.7752 24.5441C71.3347 23.9584 71.8622 23.2701 72.3576 22.4791C72.8531 21.6881 73.3 20.8778 73.6986 20.0482C74.1184 19.1933 74.4714 18.3792 74.7575 17.6058C75.065 16.8072 75.2979 16.0968 75.4564 15.4747C75.6148 14.8526 75.6919 14.3778 75.6878 14.0503C75.6858 14.027 75.6848 14.0154 75.6848 14.0154C75.6829 13.9922 75.6809 13.9689 75.679 13.9457C75.5395 13.9574 75.2616 14.2735 74.8455 14.8939C74.4507 15.4891 73.9921 16.3004 73.4697 17.3278C72.9686 18.33 72.4667 19.461 71.9638 20.721C71.4843 21.9789 71.0881 23.2533 70.7752 24.5441ZM86.9728 35.8259C85.9498 35.912 85.1571 35.6743 84.5947 35.1128C84.0323 34.5513 83.7149 33.8404 83.6426 32.9801C83.5976 32.4453 83.6338 31.7632 83.7514 30.9338C83.8689 30.1043 84.0533 29.2341 84.3045 28.3232C84.577 27.3871 84.9009 26.5051 85.2761 25.6774C85.6514 24.8497 86.0743 24.1702 86.5447 23.6389C87.0132 23.0844 87.5032 22.7856 88.0147 22.7425C88.2938 22.7191 88.5457 22.7915 88.7706 22.9599C88.9936 23.1051 89.1187 23.3404 89.1461 23.6659C89.1716 23.9682 89.0237 24.4372 88.7025 25.0731C88.4046 25.7069 88.0448 26.4397 87.623 27.2713C87.2245 28.101 86.8754 28.9616 86.5758 29.8532C86.2974 30.7196 86.1905 31.5364 86.2551 32.3037C86.3176 33.0477 86.4876 33.5369 86.7649 33.7711C87.0634 33.9802 87.4685 34.0632 87.98 34.0201C88.7706 33.9536 89.5976 33.486 90.4611 32.6172C91.3247 31.7484 92.1732 30.2838 93.0068 28.2233L93.5769 28.7374C92.9352 30.8519 92.0345 32.5317 90.8748 33.7766C89.7151 35.0215 88.4144 35.7047 86.9728 35.8259ZM89.7651 19.7503C89.3233 19.7874 88.9076 19.717 88.518 19.5391C88.1496 19.3359 87.9459 19.0018 87.9068 18.5368C87.8598 17.9787 88.122 17.4767 88.6933 17.0305C89.2646 16.5844 89.8757 16.334 90.5268 16.2792C90.9453 16.244 91.3019 16.3077 91.5965 16.4702C91.9145 16.6308 92.0939 16.9552 92.135 17.4435C92.1761 17.9318 91.9488 18.4309 91.4532 18.9409C90.9555 19.4277 90.3928 19.6975 89.7651 19.7503ZM104.422 34.0068C103.515 34.0831 102.798 33.9092 102.27 33.4853C101.768 33.0826 101.488 32.5326 101.429 31.835C101.39 31.37 101.43 30.8749 101.55 30.3497C101.668 29.8012 101.786 29.2527 101.903 28.7042C102.021 28.1558 102.059 27.6374 102.018 27.1491C101.975 26.6376 101.818 26.2996 101.547 26.1351C101.297 25.9454 101.009 25.8642 100.683 25.8916C99.9857 25.9503 99.2894 26.3016 98.5942 26.9455C97.9204 27.5641 97.2709 28.3329 96.6457 29.2519C96.0438 30.1689 95.4797 31.1179 94.9534 32.0988C94.4271 33.0797 93.9744 33.9608 93.5952 34.742C93.1534 34.7791 92.7281 34.733 92.3191 34.6034C91.9121 34.4972 91.5534 34.2698 91.2431 33.9212C91.2566 33.803 91.3668 33.4425 91.5736 32.8397C91.7553 32.2156 91.963 31.484 92.1968 30.6448C92.4287 29.7823 92.6227 28.8879 92.7789 27.9615C92.9352 27.0352 92.982 26.2 92.9194 25.4559C93.0665 25.2562 93.295 25.0497 93.6049 24.8363C93.938 24.6209 94.2905 24.4976 94.6626 24.4663C95.4764 24.3979 95.9126 24.7124 95.9713 25.4099C95.9947 25.6889 95.9718 26.1124 95.9025 26.6802C95.8545 27.2228 95.7668 27.8507 95.6395 28.5638C96.1756 27.6992 96.7737 26.8762 97.4338 26.0947C98.094 25.3133 98.7891 24.6694 99.5192 24.1631C100.271 23.6316 101.042 23.3326 101.832 23.2661C102.832 23.182 103.593 23.4575 104.115 24.0926C104.66 24.7259 104.966 25.4494 105.035 26.2631C105.093 26.9607 105.032 27.6215 104.85 28.2456C104.669 28.8697 104.484 29.4589 104.296 30.0132C104.132 30.5656 104.072 31.0976 104.115 31.6091C104.146 31.9811 104.25 32.2417 104.426 32.3907C104.624 32.5146 104.827 32.5677 105.037 32.5501C105.595 32.5032 106.154 32.1869 106.713 31.6012C107.273 31.0156 107.786 30.2934 108.252 29.4346C108.739 28.5506 109.157 27.6725 109.505 26.8003L110.139 27.2387C109.747 28.419 109.277 29.5123 108.729 30.5184C108.203 31.4993 107.581 32.3127 106.862 32.9585C106.165 33.5791 105.352 33.9286 104.422 34.0068ZM113.269 34.1055C111.781 34.2307 110.596 33.9206 109.714 33.1752C108.857 32.4512 108.377 31.4847 108.275 30.2756C108.189 29.2525 108.354 28.1499 108.77 26.9675C109.207 25.76 109.825 24.6191 110.624 23.545C111.422 22.4476 112.329 21.54 113.346 20.8223C114.363 20.1045 115.406 19.7006 116.475 19.6107C117.08 19.5598 117.663 19.6747 118.225 19.9552C118.809 20.2105 119.14 20.8032 119.218 21.7332C119.292 22.6168 119.106 23.4637 118.659 24.274C118.212 25.0844 117.584 25.828 116.774 26.5049C115.965 27.1818 115.054 27.7619 114.041 28.2452C113.049 28.7033 112.035 29.0344 110.998 29.2387C110.983 29.3337 110.968 29.4403 110.955 29.5585C110.963 29.6515 110.976 29.8142 110.996 30.0467C111.006 30.163 111.035 30.3713 111.084 30.6716C111.153 30.9467 111.284 31.2402 111.474 31.552C111.664 31.8638 111.955 32.1203 112.346 32.3215C112.738 32.5228 113.259 32.596 113.91 32.5412C114.887 32.4591 115.841 32.1095 116.772 31.4926C117.725 30.8505 118.594 30.0398 119.378 29.0606C120.185 28.0795 120.832 27.0065 121.32 25.8415L122.064 26.3409C121.554 27.7887 120.843 29.0779 119.931 30.2083C119.042 31.3368 118.018 32.2425 116.858 32.9255C115.721 33.6065 114.525 33.9998 113.269 34.1055ZM111.273 27.916C111.872 27.7954 112.529 27.5294 113.243 27.118C113.958 26.7067 114.63 26.2052 115.259 25.6137C115.912 25.0203 116.433 24.3911 116.821 23.7261C117.208 23.0379 117.375 22.3683 117.32 21.7173C117.298 21.4615 117.237 21.2911 117.136 21.2059C117.035 21.1207 116.88 21.0869 116.671 21.1045C116.136 21.1495 115.595 21.3941 115.047 21.8382C114.497 22.2592 113.969 22.807 113.464 23.4817C112.957 24.1332 112.514 24.8495 112.135 25.6307C111.755 26.4119 111.468 27.1737 111.273 27.916Z" fill="black"/>
<path d="M30.5037 18.9074L30.0058 18.9182L29.962 16.9001L27.7125 16.949L27.7563 18.9671L27.2584 18.9779L27.1654 14.6957L27.6634 14.6849L27.703 16.5096L29.9524 16.4608L29.9128 14.636L30.4107 14.6252L30.5037 18.9074ZM36.7648 18.7715L34.3805 18.8232L34.2876 14.541L36.6718 14.4893L36.6813 14.9286L34.795 14.9696L34.8251 16.355L36.603 16.3164L36.6124 16.7499L34.8345 16.7885L34.8689 18.3731L36.7552 18.3321L36.7648 18.7715ZM40.4131 18.6922L40.3201 14.41L40.8181 14.3992L40.9014 18.2362L42.8023 18.1949L42.812 18.6402L40.4131 18.6922ZM46.2465 18.5656L46.1535 14.2834L46.6515 14.2726L46.7348 18.1096L48.6357 18.0683L48.6454 18.5135L46.2465 18.5656ZM55.7472 16.2113C55.7544 16.5413 55.719 16.843 55.6409 17.1162C55.5628 17.3875 55.4428 17.6226 55.2811 17.8214C55.1213 18.0183 54.9205 18.1721 54.6787 18.2829C54.4369 18.3936 54.1549 18.4525 53.8327 18.4595C53.5008 18.4667 53.2096 18.4203 52.9594 18.3202C52.711 18.2201 52.5027 18.0742 52.3345 17.8825C52.1682 17.6907 52.0411 17.46 51.9532 17.1904C51.8672 16.9207 51.8206 16.6209 51.8135 16.2909C51.804 15.8535 51.8679 15.4682 52.0052 15.1351C52.1426 14.8019 52.3557 14.5404 52.6446 14.3505C52.9355 14.1606 53.3025 14.0608 53.7458 14.0511C54.1695 14.0419 54.5278 14.125 54.8208 14.3003C55.1157 14.4756 55.3409 14.7266 55.4965 15.0534C55.6539 15.3782 55.7375 15.7642 55.7472 16.2113ZM52.3379 16.2854C52.3458 16.6485 52.4043 16.9618 52.5136 17.2251C52.6229 17.4884 52.7855 17.69 53.0015 17.8299C53.2194 17.9697 53.4934 18.0361 53.8234 18.0289C54.1553 18.0217 54.4252 17.9436 54.6329 17.7945C54.8426 17.6454 54.9954 17.4369 55.0911 17.1692C55.1869 16.9014 55.2308 16.5859 55.223 16.2227C55.211 15.6701 55.0854 15.2411 54.8463 14.9357C54.6091 14.6282 54.2454 14.4798 53.7553 14.4905C53.4234 14.4977 53.1515 14.5749 52.9398 14.7221C52.7281 14.8693 52.5724 15.0759 52.4727 15.3418C52.3749 15.6057 52.33 15.9202 52.3379 16.2854ZM59.7884 17.0818L59.4691 17.0888L59.2672 13.9987L59.856 13.9859L59.7884 17.0818ZM59.295 17.9775C59.292 17.8408 59.3231 17.7434 59.3883 17.6854C59.4534 17.6254 59.5358 17.5943 59.6354 17.5921C59.733 17.59 59.8156 17.6175 59.8833 17.6746C59.9529 17.7298 59.9891 17.8257 59.9921 17.9624C59.995 18.0971 59.963 18.1965 59.896 18.2604C59.8309 18.3224 59.7496 18.3544 59.652 18.3566C59.5524 18.3587 59.4687 18.3303 59.401 18.2712C59.3333 18.2101 59.2979 18.1122 59.295 17.9775Z" fill="black"/>
</svg>
