<svg width="166" height="53" viewBox="0 0 166 53" fill="none" xmlns="http://www.w3.org/2000/svg">
<path d="M65.626 35L61.8447 22.6787H61.748C61.7624 22.9723 61.7839 23.4163 61.8125 24.0107C61.8483 24.598 61.8805 25.2246 61.9092 25.8906C61.9378 26.5566 61.9521 27.1582 61.9521 27.6953V35H58.9766V19.2949H63.5098L67.2266 31.3047H67.291L71.2334 19.2949H75.7666V35H72.6621V27.5664C72.6621 27.0723 72.6693 26.5029 72.6836 25.8584C72.7051 25.2139 72.7301 24.6016 72.7588 24.0215C72.7874 23.4342 72.8089 22.9938 72.8232 22.7002H72.7266L68.6768 35H65.626ZM84.8648 22.7646C85.9748 22.7646 86.9309 22.9795 87.733 23.4092C88.5351 23.8317 89.1545 24.4476 89.5914 25.2568C90.0282 26.0661 90.2466 27.0544 90.2466 28.2217V29.8115H82.5015C82.5373 30.7354 82.813 31.4622 83.3287 31.9922C83.8515 32.515 84.5748 32.7764 85.4986 32.7764C86.2649 32.7764 86.9667 32.6976 87.6041 32.54C88.2414 32.3825 88.8967 32.1462 89.5699 31.8311V34.3662C88.9755 34.6598 88.3524 34.8747 87.7007 35.0107C87.0562 35.1468 86.272 35.2148 85.3482 35.2148C84.1451 35.2148 83.078 34.9928 82.147 34.5488C81.2232 34.1048 80.4963 33.4281 79.9664 32.5186C79.4436 31.609 79.1822 30.4632 79.1822 29.0811C79.1822 27.6774 79.4185 26.5101 79.8912 25.5791C80.371 24.641 81.037 23.9391 81.8892 23.4736C82.7414 23.001 83.7333 22.7646 84.8648 22.7646ZM84.8863 25.0957C84.2489 25.0957 83.719 25.2998 83.2964 25.708C82.8811 26.1162 82.6412 26.7572 82.5767 27.6309H87.1744C87.1672 27.1439 87.0777 26.7106 86.9058 26.3311C86.7411 25.9515 86.4905 25.6507 86.1539 25.4287C85.8244 25.2067 85.4019 25.0957 84.8863 25.0957ZM101.73 31.4336C101.73 32.25 101.536 32.9411 101.15 33.5068C100.77 34.0654 100.201 34.4915 99.4415 34.7852C98.6824 35.0716 97.7371 35.2148 96.6056 35.2148C95.7677 35.2148 95.048 35.1611 94.4464 35.0537C93.852 34.9463 93.2504 34.7673 92.6417 34.5166V31.8096C93.2934 32.1032 93.9917 32.3467 94.7364 32.54C95.4884 32.7262 96.1473 32.8193 96.713 32.8193C97.3504 32.8193 97.8051 32.7262 98.0773 32.54C98.3566 32.3467 98.4962 32.096 98.4962 31.7881C98.4962 31.5876 98.4389 31.4085 98.3243 31.251C98.2169 31.0863 97.9806 30.9036 97.6154 30.7031C97.2501 30.4954 96.6772 30.2269 95.8966 29.8975C95.1446 29.5824 94.5252 29.2637 94.0382 28.9414C93.5584 28.6191 93.2003 28.2396 92.964 27.8027C92.7348 27.3587 92.6202 26.7965 92.6202 26.1162C92.6202 25.0062 93.0499 24.1719 93.9093 23.6133C94.7758 23.0475 95.9324 22.7646 97.379 22.7646C98.1238 22.7646 98.8328 22.8398 99.506 22.9902C100.186 23.1406 100.885 23.3805 101.601 23.71L100.612 26.0732C100.018 25.8154 99.4558 25.6042 98.9259 25.4395C98.4031 25.2747 97.8696 25.1924 97.3253 25.1924C96.8455 25.1924 96.4838 25.2568 96.2404 25.3857C95.9969 25.5146 95.8751 25.7116 95.8751 25.9766C95.8751 26.1699 95.936 26.3418 96.0577 26.4922C96.1866 26.6426 96.4301 26.8109 96.7882 26.9971C97.1534 27.1761 97.687 27.4089 98.3888 27.6953C99.0691 27.9746 99.6599 28.2682 100.161 28.5762C100.663 28.877 101.049 29.2529 101.321 29.7041C101.594 30.1481 101.73 30.7246 101.73 31.4336ZM109.786 32.6045C110.144 32.6045 110.491 32.5687 110.828 32.4971C111.172 32.4255 111.512 32.3359 111.848 32.2285V34.667C111.497 34.8245 111.061 34.9535 110.538 35.0537C110.022 35.1611 109.456 35.2148 108.841 35.2148C108.124 35.2148 107.48 35.1003 106.907 34.8711C106.341 34.6348 105.894 34.2301 105.564 33.6572C105.242 33.0771 105.081 32.2715 105.081 31.2402V25.4502H103.512V24.0645L105.317 22.9688L106.262 20.4336H108.357V22.9902H111.719V25.4502H108.357V31.2402C108.357 31.6986 108.486 32.0423 108.744 32.2715C109.009 32.4935 109.356 32.6045 109.786 32.6045ZM125.641 28.9736C125.641 29.9762 125.505 30.8643 125.233 31.6377C124.968 32.4111 124.577 33.0664 124.062 33.6035C123.553 34.1335 122.937 34.5345 122.214 34.8066C121.498 35.0788 120.689 35.2148 119.786 35.2148C118.941 35.2148 118.164 35.0788 117.455 34.8066C116.753 34.5345 116.141 34.1335 115.618 33.6035C115.103 33.0664 114.702 32.4111 114.415 31.6377C114.136 30.8643 113.996 29.9762 113.996 28.9736C113.996 27.6416 114.233 26.5137 114.705 25.5898C115.178 24.666 115.851 23.9642 116.725 23.4844C117.599 23.0046 118.641 22.7646 119.851 22.7646C120.975 22.7646 121.971 23.0046 122.837 23.4844C123.711 23.9642 124.395 24.666 124.889 25.5898C125.39 26.5137 125.641 27.6416 125.641 28.9736ZM117.337 28.9736C117.337 29.7614 117.423 30.4238 117.595 30.9609C117.767 31.498 118.035 31.9027 118.401 32.1748C118.766 32.4469 119.242 32.583 119.829 32.583C120.409 32.583 120.878 32.4469 121.237 32.1748C121.602 31.9027 121.867 31.498 122.031 30.9609C122.203 30.4238 122.289 29.7614 122.289 28.9736C122.289 28.1787 122.203 27.5199 122.031 26.9971C121.867 26.4671 121.602 26.0697 121.237 25.8047C120.871 25.5397 120.395 25.4072 119.808 25.4072C118.941 25.4072 118.311 25.7044 117.917 26.2988C117.531 26.8932 117.337 27.7848 117.337 28.9736ZM135.609 22.7646C136.891 22.7646 137.922 23.1156 138.703 23.8174C139.484 24.512 139.874 25.6292 139.874 27.1689V35H136.597V27.9854C136.597 27.126 136.44 26.4779 136.125 26.041C135.817 25.6042 135.33 25.3857 134.664 25.3857C133.661 25.3857 132.977 25.7259 132.612 26.4062C132.247 27.0866 132.064 28.0677 132.064 29.3496V35H128.788V22.9902H131.291L131.731 24.5264H131.914C132.172 24.111 132.49 23.7744 132.87 23.5166C133.257 23.2588 133.683 23.069 134.148 22.9473C134.621 22.8255 135.108 22.7646 135.609 22.7646ZM146.963 22.9902V35H143.687V22.9902H146.963ZM145.33 18.2852C145.817 18.2852 146.236 18.3997 146.587 18.6289C146.938 18.8509 147.114 19.2699 147.114 19.8857C147.114 20.4945 146.938 20.917 146.587 21.1533C146.236 21.3825 145.817 21.4971 145.33 21.4971C144.836 21.4971 144.414 21.3825 144.063 21.1533C143.719 20.917 143.547 20.4945 143.547 19.8857C143.547 19.2699 143.719 18.8509 144.063 18.6289C144.414 18.3997 144.836 18.2852 145.33 18.2852ZM153.311 28.8662L149.444 22.9902H153.161L155.492 26.8145L157.845 22.9902H161.561L157.651 28.8662L161.744 35H158.017L155.492 30.8857L152.957 35H149.24L153.311 28.8662Z" fill="black"/>
<path fill-rule="evenodd" clip-rule="evenodd" d="M7.25 6.83327L0 13.6193V29.1033V44.5883L14.819 48.7703C22.97 51.0713 29.945 52.9533 30.319 52.9533C30.694 52.9533 31 49.1283 31 44.4533C31 39.4533 31.412 35.9533 32 35.9533C32.579 35.9533 33 39.1403 33 43.5153V51.0773L39.499 45.2653L45.999 39.4533V23.8863L46 8.31827L31.181 4.13627C23.03 1.83527 15.943 -0.0257308 15.431 0.000269156C14.919 0.0262692 11.238 3.10127 7.25 6.83327ZM41.725 9.35027C41.849 9.47127 39.496 11.9943 36.497 14.9563L31.043 20.3423L25.772 19.0093C15.674 16.4553 16 16.7673 16 9.64427C16 6.14727 16.235 3.05227 16.521 2.76527C16.947 2.33927 40.975 8.61727 41.725 9.35027ZM14.304 14.9873C13.862 15.3953 11.309 15.0763 8.632 14.2773L3.764 12.8243L9.132 8.00827L14.5 3.19227L14.804 8.71827C14.972 11.7583 14.747 14.5793 14.304 14.9873ZM44 23.4533C44 37.4633 44.428 36.8633 36.182 34.4143L31 32.8763V28.1913C31 23.7873 31.372 23.1323 37.221 17.2303C40.643 13.7783 43.568 10.9533 43.721 10.9533C43.875 10.9533 44 16.5783 44 23.4533Z" fill="black"/>
</svg>
