<svg width="111" height="87" viewBox="0 0 111 87" fill="none" xmlns="http://www.w3.org/2000/svg">
<path d="M30.75 56.6494C31.459 56.6494 32.125 56.4561 32.748 56.0693C33.3926 55.6611 33.9941 55.1348 34.5527 54.4902C35.1328 53.8242 35.6699 53.083 36.1641 52.2666C36.6797 51.4287 37.1416 50.5908 37.5498 49.7529C37.9795 48.8936 38.3555 48.0771 38.6777 47.3037C39.0215 46.5088 39.3223 45.8213 39.5801 45.2412L40.8369 45.5635C40.5576 46.2725 40.2354 47.0674 39.8701 47.9482C39.5264 48.8291 39.1182 49.7314 38.6455 50.6553C38.1943 51.5791 37.6895 52.4814 37.1309 53.3623C36.5938 54.2217 35.9922 54.9951 35.3262 55.6826C34.6602 56.3701 33.9404 56.9287 33.167 57.3584C32.3936 57.7666 31.5664 57.9707 30.6855 57.9707C29.8262 57.9707 28.9668 57.7881 28.1074 57.4229C27.377 57.9814 26.5713 58.4219 25.6904 58.7441C24.8096 59.0664 23.832 59.2275 22.7578 59.2275C22.0918 59.2275 21.5547 59.1416 21.1465 58.9697C20.7383 58.7979 20.416 58.5938 20.1797 58.3574C19.9648 58.0996 19.8145 57.8418 19.7285 57.584C19.6426 57.3262 19.5996 57.1006 19.5996 56.9072C19.5996 56.4775 19.6963 56.1016 19.8896 55.7793C20.083 55.4355 20.3408 55.1455 20.6631 54.9092C20.9854 54.6729 21.3506 54.501 21.7588 54.3936C22.1885 54.2646 22.6289 54.2002 23.0801 54.2002C23.8105 54.2002 24.5088 54.3398 25.1748 54.6191C25.8408 54.877 26.4854 55.1562 27.1084 55.457C27.6025 54.834 28.043 54.1357 28.4297 53.3623C28.8164 52.5889 29.1387 51.7939 29.3965 50.9775C29.6543 50.1396 29.8477 49.3125 29.9766 48.4961C30.127 47.6797 30.2021 46.917 30.2021 46.208C30.2021 44.5537 29.9229 43.3613 29.3643 42.6309C28.8271 41.9004 28.1826 41.5352 27.4307 41.5352C26.5928 41.5352 25.7764 41.793 24.9814 42.3086C24.208 42.8242 23.4131 43.6299 22.5967 44.7256C21.8018 45.8213 20.9746 47.2178 20.1152 48.915C19.2773 50.5908 18.375 52.5996 17.4082 54.9414C17.3008 55.1348 17.2148 55.3389 17.1504 55.5537C17.0859 55.7686 17 55.9727 16.8926 56.166C17.0859 58.7012 17.2793 61.1289 17.4727 63.4492C17.6875 65.791 17.7949 67.875 17.7949 69.7012C17.7949 73.1602 17.3975 75.7168 16.6025 77.3711C15.8076 79.0469 14.583 79.8848 12.9287 79.8848C12.2842 79.8848 11.7256 79.7344 11.2529 79.4336C10.7803 79.1328 10.3936 78.7246 10.0928 78.209C9.77051 77.6934 9.53418 77.0811 9.38379 76.3721C9.2334 75.6846 9.1582 74.9434 9.1582 74.1484C9.1582 72.9023 9.31934 71.5273 9.6416 70.0234C9.94238 68.5195 10.3506 66.9512 10.8662 65.3184C11.3818 63.707 11.9834 62.042 12.6709 60.3232C13.3584 58.6045 14.0781 56.8965 14.8301 55.1992C14.6367 53.0508 14.4648 50.9453 14.3145 48.8828C14.1855 46.7988 14.1211 44.79 14.1211 42.8564C14.1211 41.1807 14.2393 39.8701 14.4756 38.9248C14.7119 37.9795 15.0771 37.5068 15.5713 37.5068C15.7217 37.5068 15.915 37.5498 16.1514 37.6357C16.4092 37.7217 16.6455 37.8613 16.8604 38.0547C17.0752 38.2266 17.2578 38.4414 17.4082 38.6992C17.5801 38.957 17.666 39.2578 17.666 39.6016C17.666 40.4824 17.5479 41.3848 17.3115 42.3086C17.0752 43.2324 16.7529 44.1562 16.3447 45.0801C16.3447 46.0898 16.3555 47.1211 16.377 48.1738C16.4199 49.2266 16.4736 50.29 16.5381 51.3643C17.4834 49.3877 18.4072 47.7012 19.3096 46.3047C20.2119 44.8867 21.1143 43.7373 22.0166 42.8564C22.9189 41.9541 23.8105 41.2988 24.6914 40.8906C25.5938 40.4824 26.5068 40.2783 27.4307 40.2783C28.2256 40.2783 28.9453 40.4502 29.5898 40.7939C30.2344 41.1377 30.7822 41.6104 31.2334 42.2119C31.6846 42.792 32.0283 43.4902 32.2646 44.3066C32.5225 45.123 32.6514 46.0039 32.6514 46.9492C32.6514 48.6895 32.3721 50.3975 31.8135 52.0732C31.2549 53.749 30.417 55.1885 29.2998 56.3916C29.708 56.5635 30.1914 56.6494 30.75 56.6494ZM15.958 71.957C15.958 70.0664 15.8936 68.1113 15.7646 66.0918C15.6357 64.0938 15.4854 62.085 15.3135 60.0654C14.0459 63.1377 13.0039 65.9092 12.1875 68.3799C11.3926 70.8506 10.9951 73.0957 10.9951 75.1152C10.9951 76.082 11.1777 76.9092 11.543 77.5967C11.9082 78.2842 12.4561 78.6279 13.1865 78.6279C13.5732 78.6279 13.9277 78.5205 14.25 78.3057C14.5938 78.0908 14.8838 77.7256 15.1201 77.21C15.3779 76.6943 15.582 76.0068 15.7324 75.1475C15.8828 74.2881 15.958 73.2246 15.958 71.957ZM22.6289 57.9707C23.2949 57.9707 23.918 57.8418 24.498 57.584C25.0781 57.3262 25.6152 56.9717 26.1094 56.5205C25.5293 56.2412 24.9814 55.9941 24.4658 55.7793C23.9717 55.5645 23.4883 55.457 23.0156 55.457C22.1992 55.457 21.6299 55.6182 21.3076 55.9404C21.0068 56.2412 20.8564 56.542 20.8564 56.8428C20.8564 57.0791 20.9961 57.3262 21.2754 57.584C21.5547 57.8418 22.0059 57.9707 22.6289 57.9707ZM51.9229 53.5557C51.2568 54.7588 50.6123 55.7578 49.9893 56.5527C49.3662 57.3477 48.7432 57.9814 48.1201 58.4541C47.5186 58.9268 46.9062 59.2598 46.2832 59.4531C45.6602 59.6465 45.0156 59.7432 44.3496 59.7432C43.8125 59.7432 43.2002 59.6572 42.5127 59.4854C41.8252 59.3135 41.1699 58.959 40.5469 58.4219C39.9453 57.8633 39.4297 57.0684 39 56.0371C38.5918 55.0059 38.3877 53.6201 38.3877 51.8799C38.3877 50.1396 38.5918 48.5068 39 46.9814C39.4082 45.4346 39.8594 44.0811 40.3535 42.9209C40.9336 41.5889 41.5996 40.3535 42.3516 39.2148L43.5439 39.6016C43.5225 39.623 43.4473 39.8164 43.3184 40.1816C43.2109 40.5469 43.0605 41.041 42.8672 41.6641C42.6953 42.2871 42.502 43.0068 42.2871 43.8232C42.0938 44.6396 41.9004 45.5098 41.707 46.4336C41.5352 47.3359 41.3848 48.2598 41.2559 49.2051C41.1484 50.1504 41.0947 51.0635 41.0947 51.9443C41.0947 53.9639 41.4492 55.5645 42.1582 56.7461C42.8887 57.9062 43.834 58.4863 44.9941 58.4863C46.2832 58.4863 47.5293 57.7451 48.7324 56.2627C49.9355 54.7588 51.085 52.6641 52.1807 49.9785C52.374 48.7324 52.6318 47.5723 52.9541 46.498C53.2979 45.4238 53.6309 44.4678 53.9531 43.6299C54.2969 42.792 54.6084 42.0938 54.8877 41.5352C55.167 40.9766 55.3711 40.6006 55.5 40.4072L56.6279 40.665C56.2842 42.2764 55.9834 43.7266 55.7256 45.0156C55.4893 46.2832 55.2959 47.4326 55.1455 48.4639C54.9951 49.4951 54.877 50.4189 54.791 51.2354C54.7266 52.0303 54.6943 52.75 54.6943 53.3945C54.6943 54.6836 54.8984 55.7148 55.3066 56.4883C55.7148 57.2617 56.3486 57.6484 57.208 57.6484C57.7881 57.6484 58.3467 57.4336 58.8838 57.0039C59.4209 56.5742 59.9795 55.8652 60.5596 54.877C61.1396 53.8887 61.752 52.6104 62.3965 51.042C63.041 49.4736 63.7715 47.54 64.5879 45.2412L65.8447 45.5635C65.4795 46.4658 65.1143 47.4326 64.749 48.4639C64.3838 49.4951 63.9863 50.5264 63.5566 51.5576C63.1484 52.5889 62.708 53.5771 62.2354 54.5225C61.7842 55.4678 61.2686 56.3057 60.6885 57.0361C60.1299 57.7666 59.5176 58.3467 58.8516 58.7764C58.1855 59.2061 57.4443 59.4209 56.6279 59.4209C55.8545 59.4209 55.1777 59.2705 54.5977 58.9697C54.0176 58.6689 53.5234 58.2607 53.1152 57.7451C52.7285 57.2295 52.4277 56.6172 52.2129 55.9082C52.0195 55.1777 51.9229 54.3936 51.9229 53.5557ZM66.457 43.8555C66.2422 44.6074 66.0273 45.252 65.8125 45.7891C65.5977 46.3262 65.3613 46.8311 65.1035 47.3037C64.8457 47.7549 64.5557 48.1953 64.2334 48.625C63.9326 49.0332 63.5889 49.4844 63.2021 49.9785L62.9443 49.7207C63.4385 48.4531 63.8682 47.2607 64.2334 46.1436C64.6201 45.0264 64.9639 43.9092 65.2646 42.792C64.9209 42.2979 64.6201 41.6855 64.3623 40.9551C64.126 40.2031 64.0078 39.3115 64.0078 38.2803C64.0078 37.3564 64.1475 36.5938 64.4268 35.9922C64.7275 35.3691 65.1143 35.0576 65.5869 35.0576C65.8447 35.0576 66.0811 35.1758 66.2959 35.4121C66.5322 35.6484 66.7256 35.96 66.876 36.3467C67.0264 36.7334 67.1445 37.1846 67.2305 37.7002C67.3164 38.1943 67.3594 38.7207 67.3594 39.2793C67.3594 39.5371 67.3379 39.8164 67.2949 40.1172C67.2734 40.418 67.2412 40.7295 67.1982 41.0518C67.1553 41.3525 67.1016 41.6533 67.0371 41.9541C66.9727 42.2334 66.9082 42.4697 66.8438 42.6631C66.9727 42.7705 67.1768 42.8672 67.4561 42.9531C67.7568 43.0176 68.1436 43.0498 68.6162 43.0498C69.4326 43.0498 70.1523 42.9316 70.7754 42.6953C71.3984 42.459 71.8926 42.1582 72.2578 41.793C72.5801 41.2773 72.8271 40.8799 72.999 40.6006C73.1924 40.3213 73.3428 40.1172 73.4502 39.9883C73.5576 39.8379 73.6328 39.752 73.6758 39.7305C73.7402 39.6875 73.8154 39.666 73.9014 39.666C74.1377 39.666 74.3311 39.7305 74.4814 39.8594C74.6318 39.9883 74.707 40.1709 74.707 40.4072C74.707 40.4717 74.6748 40.5576 74.6104 40.665C74.5459 40.7725 74.46 40.9121 74.3525 41.084C73.4502 42.3945 72.7412 43.834 72.2256 45.4023C71.71 46.9707 71.4521 48.7109 71.4521 50.623C71.4521 52.8359 71.8066 54.4365 72.5156 55.4248C73.2461 56.4131 74.2773 56.9072 75.6094 56.9072C76.3398 56.9072 77.0381 56.6924 77.7041 56.2627C78.3701 55.8115 79.0254 55.124 79.6699 54.2002C80.3145 53.2549 80.959 52.0518 81.6035 50.5908C82.2695 49.1084 82.9785 47.3252 83.7305 45.2412L84.9873 45.5635C84.0635 48.292 83.1934 50.5371 82.377 52.2988C81.5605 54.0391 80.7549 55.4248 79.96 56.4561C79.165 57.4658 78.3486 58.1748 77.5107 58.583C76.6729 58.9697 75.7598 59.1631 74.7715 59.1631C74.1484 59.1631 73.5039 59.0234 72.8379 58.7441C72.1719 58.4648 71.5596 58.0244 71.001 57.4229C70.4639 56.8213 70.0234 56.0479 69.6797 55.1025C69.3359 54.1357 69.1641 52.9756 69.1641 51.6221C69.1641 50.9561 69.2178 50.2686 69.3252 49.5596C69.4541 48.8291 69.6152 48.1309 69.8086 47.4648C70.002 46.7773 70.2168 46.1221 70.4531 45.499C70.6895 44.8545 70.9365 44.2744 71.1943 43.7588C70.4209 44.124 69.583 44.3066 68.6807 44.3066C67.7998 44.3066 67.0586 44.1562 66.457 43.8555ZM90.7881 60.5488C89.6924 60.5488 88.6396 60.3555 87.6299 59.9688C86.6201 59.582 85.7285 59.002 84.9551 58.2285C84.2031 57.4336 83.6016 56.4453 83.1504 55.2637C82.6992 54.082 82.4736 52.6963 82.4736 51.1064C82.4736 49.1729 82.7529 47.4541 83.3115 45.9502C83.8701 44.4248 84.5791 43.1465 85.4385 42.1152C86.3193 41.0625 87.2969 40.2676 88.3711 39.7305C89.4453 39.1719 90.498 38.8926 91.5293 38.8926C92.8613 38.8926 93.9141 39.333 94.6875 40.2139C95.4824 41.0947 95.8799 42.2334 95.8799 43.6299C95.8799 44.833 95.6543 45.9287 95.2031 46.917C94.752 47.8838 94.1504 48.7217 93.3984 49.4307C92.668 50.1182 91.8193 50.6553 90.8525 51.042C89.9072 51.4287 88.9189 51.6221 87.8877 51.6221C87.3936 51.6221 86.9209 51.6006 86.4697 51.5576C86.04 51.4932 85.6533 51.4287 85.3096 51.3643C85.4385 52.6963 85.6963 53.8457 86.083 54.8125C86.4697 55.7793 86.9531 56.5742 87.5332 57.1973C88.1133 57.8203 88.7578 58.2822 89.4668 58.583C90.1973 58.8838 90.9492 59.0342 91.7227 59.0342C92.6895 59.0342 93.5811 58.7979 94.3975 58.3252C95.2139 57.8525 95.9658 57.2402 96.6533 56.4883C97.3408 55.7148 97.9639 54.834 98.5225 53.8457C99.1025 52.8574 99.6182 51.8584 100.069 50.8486C100.521 49.8174 100.918 48.8184 101.262 47.8516C101.627 46.8633 101.949 45.9932 102.229 45.2412L103.485 45.5635C103.206 46.2725 102.873 47.1318 102.486 48.1416C102.121 49.1514 101.691 50.2148 101.197 51.332C100.703 52.4277 100.123 53.5342 99.457 54.6514C98.791 55.7471 98.0391 56.7354 97.2012 57.6162C96.3633 58.4756 95.4072 59.1846 94.333 59.7432C93.2803 60.2803 92.0986 60.5488 90.7881 60.5488ZM91.5938 40.1494C90.7988 40.1494 90.0146 40.4072 89.2412 40.9229C88.4893 41.417 87.8125 42.1045 87.2109 42.9854C86.6094 43.8662 86.1152 44.9082 85.7285 46.1113C85.3633 47.3145 85.1807 48.6035 85.1807 49.9785C85.46 50.0859 85.8467 50.1826 86.3408 50.2686C86.8564 50.333 87.4795 50.3652 88.21 50.3652C88.9834 50.3652 89.7461 50.2041 90.498 49.8818C91.2715 49.5381 91.959 49.0762 92.5605 48.4961C93.1836 47.8945 93.6777 47.1855 94.043 46.3691C94.4297 45.5527 94.623 44.6611 94.623 43.6943C94.623 43.2217 94.5586 42.7705 94.4297 42.3408C94.3008 41.9111 94.1074 41.5352 93.8496 41.2129C93.5918 40.8906 93.2695 40.6328 92.8828 40.4395C92.5176 40.2461 92.0879 40.1494 91.5938 40.1494Z" fill="black"/>
<circle cx="46.5" cy="67.5" r="0.5" fill="black"/>
<circle cx="71.5" cy="67.5" r="0.5" fill="black"/>
<circle cx="53" cy="67" r="1" fill="black"/>
<circle cx="66" cy="67" r="1" fill="black"/>
<circle cx="59.5" cy="66.5" r="1.5" fill="black"/>
</svg>
